<?xml version="1.0" encoding="UTF-8"?>
<svg id="Layer_1" data-name="Layer 1" xmlns="http://www.w3.org/2000/svg" viewBox="0 0 1200 1200">
  <defs>
    <style>
      .cls-1 {
        fill: #000;
      }

      .cls-1, .cls-2 {
        stroke-width: 0px;
      }

      .cls-2 {
        fill: #fff;
      }
    </style>
  </defs>
  <g>
    <path class="cls-1" d="M721.03,757.72c0,8.51-6.37,15.6-8.6,23.4-2.54,8.15,1.28,23.03,12.1,18.07,4.78-2.48,5.1-11.7,4.14-16.66-.96-5.31-4.46-9.21-6.05-14.18-.64-2.84-.64-6.03-.95-8.86l-.64-1.77Z"/>
    <path class="cls-1" d="M478.06,757.72c0,8.51-6.37,15.6-8.6,23.4-2.54,8.15,1.27,23.03,12.1,18.07,4.78-2.48,5.09-11.7,4.14-16.66-.96-5.31-4.45-9.21-6.05-14.18-.64-2.84-.64-6.02-.95-8.86l-.64-1.77Z"/>
    <g>
      <g>
        <path class="cls-1" d="M600,479.31l-58.84,155.13c-1.11,2.91-2.94,5.35-5.28,7.24-5.7,4.64-14.37,6-22.61,2.88-2.73-1.04-5.17-2.48-7.26-4.22-5.02-4.16-7.98-9.97-7.98-15.83,0-2.02.35-4.05,1.1-6.01l76.83-202.54,24.03,63.36Z"/>
        <path class="cls-1" d="M682.74,261.18l-58.71,154.77-12.23-32.22c.18.68.53,4.02-11.81-2.46,3.08-1.62,6.96-3.85,11.84-6.9,36.13-22.56,57.17-138.25,57.17-138.25,3.78-10,17.52,15.05,13.73,25.06Z"/>
      </g>
      <path class="cls-1" d="M498.91,629.53c15.93,16.39,9.14,39.22-.95,56.38-7.98,13.56-27.21,13.09-30.87,29.08,3.01,6.37,9.11,5.54,11.18,14.11-6.2,11.49-13.33,29.57-11.71,40.02,9.3-14.97,12.38-32.66,34.98-41.88,12.6-25.04,20.91-58.77,33.51-83.81.25-.87.49-.96,1.02-2.15l-37.01-12.78c-.07.19-.08.83-.14,1.02Z"/>
    </g>
    <g>
      <g>
        <path class="cls-2" d="M624.03,415.95l-24.03,63.36-24.03-63.36,12.23-32.22c-.18.68-.53,4.02,11.81-2.46,12.33,6.48,11.98,3.14,11.81,2.46l12.23,32.22Z"/>
        <path class="cls-1" d="M600,381.27c-12.33,6.48-11.98,3.14-11.81,2.46l-12.23,32.22-58.71-154.77c-3.78-10.01,9.94-35.05,13.73-25.06,0,0,21.04,115.69,57.16,138.25,4.88,3.05,8.77,5.29,11.85,6.9Z"/>
        <path class="cls-1" d="M701.96,624.51c0,1.41-.18,2.83-.5,4.22,0,.06-.02.14-.07.23-1.06,4.23-3.62,8.22-7.31,11.29-.01,0-.01.01-.01.01-2.1,1.77-4.58,3.25-7.36,4.3-8.22,3.12-16.9,1.75-22.59-2.88-2.34-1.89-4.17-4.33-5.28-7.24l-58.84-155.13,24.03-63.36,76.83,202.54c.75,1.96,1.1,3.99,1.1,6.01Z"/>
      </g>
      <path class="cls-1" d="M701.05,629.8c-15.93,16.39-9.09,38.94.99,56.1,7.98,13.56,27.21,13.09,30.86,29.08-3,6.37-9.1,5.54-11.18,14.11,6.2,11.49,13.33,29.57,11.7,40.02-9.3-14.97-12.38-32.66-34.98-41.88-12.59-25.04-20.91-58.77-33.51-83.81-.25-.87-.49-.96-1.01-2.15l37.52-12.58c.07.19-.48.91-.41,1.1Z"/>
    </g>
  </g>
  <g>
    <path class="cls-1" d="M35.53,898.69h-.31c-.07-1.82-.75-3.38-2.05-4.67-1.3-1.29-2.85-1.94-4.67-1.94h-1.36v-1.05h8.4v7.66ZM35.53,956.85v7.66h-8.4v-1.05h1.36c1.82,0,3.38-.65,4.67-1.94,1.29-1.29,1.98-2.85,2.05-4.67h.31ZM44.97,891.02v73.49h-9.76v-73.49h9.76ZM85.92,926.3v3.57h-41.99v-3.57h41.99ZM44.66,898.69v-7.66h8.4v1.05h-1.36c-1.82,0-3.38.65-4.67,1.94-1.3,1.3-1.98,2.85-2.05,4.67h-.31ZM44.66,956.85h.31c.07,1.82.75,3.38,2.05,4.67,1.29,1.3,2.85,1.94,4.67,1.94h1.36v1.05h-8.4v-7.66ZM85.29,898.69h-.31c0-1.82-.67-3.38-1.99-4.67-1.33-1.29-2.9-1.94-4.72-1.94h-1.36v-1.05h8.4v7.66ZM85.29,956.85v7.66h-8.4v-1.05h1.36c1.82,0,3.39-.65,4.72-1.94,1.33-1.29,1.99-2.85,1.99-4.67h.31ZM94.73,891.02v73.49h-9.76v-73.49h9.76ZM94.42,898.69v-7.66h8.4v1.05h-1.36c-1.82,0-3.38.65-4.67,1.94s-1.98,2.85-2.05,4.67h-.31ZM94.42,956.85h.31c.07,1.82.75,3.38,2.05,4.67,1.29,1.3,2.85,1.94,4.67,1.94h1.36v1.05h-8.4v-7.66Z"/>
    <path class="cls-1" d="M117.94,956.85c-.49,1.4-.56,2.59-.21,3.57.35.98.93,1.73,1.73,2.26.8.52,1.63.79,2.47.79h.94v1.05h-21.52v-1.05h.94c1.61,0,3.27-.51,4.99-1.52,1.71-1.01,3.13-2.71,4.25-5.09h6.4ZM140.51,889.35l.84,9.13-26.24,65.72h-6.82l26.98-63.09c.07-.14.33-.68.79-1.63.45-.95.94-2.08,1.47-3.41.53-1.33,1-2.62,1.42-3.88.42-1.26.63-2.2.63-2.83h.94ZM140.51,889.35l32.23,74.54h-12.28l-23.41-61.1,3.46-13.44ZM157.72,956.85h11.86c1.12,2.38,2.54,4.08,4.25,5.09,1.71,1.02,3.38,1.52,4.99,1.52h.84v1.05h-26.88v-1.05h.94c1.4,0,2.62-.58,3.67-1.73,1.05-1.15,1.15-2.78.32-4.88Z"/>
    <path class="cls-1" d="M185.65,957.06v7.45h-8.71v-1.05h1.99c1.75,0,3.25-.63,4.51-1.89,1.26-1.26,1.89-2.77,1.89-4.52h.31ZM185.33,889.45l8.08,9.24.1,65.82h-8.19v-61.94c0-3.71-.35-8.08-1.05-13.12h1.05ZM185.33,889.45l62.99,64.67,1.05,11.86-62.99-64.56-1.05-11.97ZM193.52,957.06c0,1.75.63,3.25,1.89,4.52,1.26,1.26,2.76,1.89,4.51,1.89h1.99v1.05h-8.71v-7.45h.31ZM232.68,891.02h8.71v7.45h-.21c-.07-1.82-.72-3.34-1.94-4.57-1.23-1.22-2.75-1.84-4.57-1.84h-1.99v-1.05ZM249.26,891.02v61.52c0,2.38.09,4.6.26,6.67.17,2.06.44,4.32.79,6.77h-.94l-8.19-9.34v-65.61h8.08ZM257.66,891.02v1.05h-1.89c-1.75,0-3.25.61-4.51,1.84-1.26,1.22-1.93,2.75-1.99,4.57h-.31v-7.45h8.71Z"/>
    <path class="cls-1" d="M269.42,898.69h-.32c0-1.82-.66-3.38-1.99-4.67-1.33-1.29-2.91-1.94-4.72-1.94h-1.26l-.1-1.05h8.4v7.66ZM269.42,956.85v7.66h-8.4v-1.05h1.36c1.82,0,3.38-.65,4.67-1.94,1.29-1.29,1.98-2.85,2.05-4.67h.32ZM278.87,891.02v73.49h-9.76v-73.49h9.76ZM297.45,891.02c7.77,0,14.52,1.51,20.26,4.52,5.74,3.01,10.22,7.28,13.44,12.81,3.22,5.53,4.83,12,4.83,19.42s-1.61,13.88-4.83,19.37c-3.22,5.49-7.7,9.76-13.44,12.81-5.74,3.04-12.49,4.57-20.26,4.57h-23.31l-.1-3.57h22.99c5.67,0,10.6-1.36,14.8-4.09,4.2-2.73,7.45-6.58,9.76-11.55s3.46-10.81,3.46-17.53-1.15-12.56-3.46-17.53-5.56-8.82-9.76-11.55c-4.2-2.73-9.13-4.1-14.8-4.1h-24.04v-3.57h24.46Z"/>
    <path class="cls-1" d="M410.93,933.86l-.53,17.01c-1.75,2.87-3.97,5.44-6.67,7.72-2.69,2.28-5.93,4.08-9.71,5.41-3.78,1.33-8.16,1.99-13.12,1.99-7.7-.07-14.51-1.66-20.42-4.78-5.91-3.11-10.52-7.52-13.8-13.23-3.29-5.7-4.93-12.47-4.93-20.31s1.63-14.4,4.88-20.1c3.25-5.7,7.84-10.13,13.75-13.28,5.91-3.15,12.93-4.72,21.05-4.72,5.32,0,10.11.65,14.38,1.94,4.27,1.3,7.91,2.89,10.92,4.78l1.47,15.85h-.95c-1.68-6.44-4.81-11.21-9.39-14.33-4.58-3.11-9.92-4.67-16.01-4.67s-11.2,1.42-15.54,4.25c-4.34,2.83-7.7,6.82-10.08,11.97-2.38,5.14-3.57,11.22-3.57,18.21s1.17,12.98,3.52,18.16c2.34,5.18,5.63,9.22,9.87,12.12,4.23,2.9,9.19,4.43,14.86,4.57,5.11,0,9.69-.91,13.75-2.73,4.06-1.82,7.42-4.81,10.08-8.98,2.66-4.16,4.44-9.78,5.35-16.85h.84Z"/>
    <path class="cls-1" d="M425.32,898.69h-.31c-.07-1.82-.75-3.38-2.05-4.67-1.3-1.29-2.85-1.94-4.67-1.94h-1.37v-1.05h8.4v7.66ZM425.32,956.85v7.66h-8.4v-1.05h1.37c1.82,0,3.37-.65,4.67-1.94s1.98-2.85,2.05-4.67h.31ZM434.76,891.02v73.49h-9.76v-73.49h9.76ZM447.78,891.02c3.15,0,6.09.42,8.82,1.26s5.06,2.08,6.98,3.73c1.92,1.65,3.45,3.69,4.57,6.14,1.12,2.45,1.68,5.32,1.68,8.61s-.73,6.35-2.2,9.4c-1.47,3.04-3.52,5.55-6.14,7.51-2.63,1.96-5.72,3.01-9.29,3.15,1.54.56,3.08,1.65,4.62,3.25,1.54,1.61,2.87,3.19,3.99,4.72,0,.07.44.73,1.31,1.99.87,1.26,1.98,2.82,3.31,4.67,1.33,1.86,2.68,3.69,4.04,5.51,1.36,1.82,2.57,3.32,3.62,4.51,1.4,1.68,2.78,3.1,4.15,4.25,1.36,1.15,2.83,2.07,4.41,2.73,1.57.67,3.34,1,5.3,1v1.05h-7.35c-3.36,0-6.33-.44-8.92-1.31-2.59-.87-4.83-2.06-6.72-3.57-1.89-1.51-3.5-3.13-4.83-4.88-.28-.49-.86-1.4-1.73-2.73-.88-1.33-1.86-2.85-2.94-4.57-1.09-1.71-2.15-3.41-3.2-5.09-1.05-1.68-1.96-3.13-2.73-4.36-.77-1.22-1.26-2.01-1.47-2.36-1.19-1.89-2.52-3.52-3.99-4.88-1.47-1.36-3.08-2.08-4.83-2.15v-1.05c.07,0,.58.02,1.52.05.94.04,2.05.02,3.31-.05,1.82-.07,3.76-.38,5.83-.95,2.06-.56,3.95-1.64,5.67-3.25,1.71-1.61,2.99-3.99,3.83-7.14.21-.7.37-1.57.47-2.62.11-1.05.12-2.13.05-3.25-.07-4.83-1.28-8.59-3.62-11.28-2.35-2.69-5.41-4.11-9.19-4.25-1.61-.14-3.29-.19-5.04-.16-1.75.04-3.25.05-4.51.05h-2.1c0-.07-.09-.4-.26-1-.18-.59-.44-1.49-.79-2.68h14.38ZM434.45,956.85h.31c0,1.82.66,3.38,1.99,4.67,1.33,1.3,2.9,1.94,4.72,1.94h1.26v1.05h-8.29v-7.66Z"/>
    <path class="cls-1" d="M491.77,956.85c-.49,1.4-.56,2.59-.21,3.57.35.98.93,1.73,1.73,2.26.8.52,1.63.79,2.47.79h.95v1.05h-21.52v-1.05h.95c1.61,0,3.27-.51,4.99-1.52,1.71-1.01,3.13-2.71,4.25-5.09h6.4ZM514.34,889.35l.84,9.13-26.24,65.72h-6.82l26.98-63.09c.07-.14.33-.68.79-1.63.46-.95.95-2.08,1.47-3.41.52-1.33,1-2.62,1.42-3.88.42-1.26.63-2.2.63-2.83h.95ZM514.34,889.35l32.23,74.54h-12.28l-23.41-61.1,3.46-13.44ZM531.56,956.85h11.86c1.12,2.38,2.54,4.08,4.25,5.09,1.71,1.02,3.37,1.52,4.99,1.52h.84v1.05h-26.87v-1.05h.95c1.4,0,2.62-.58,3.67-1.73s1.15-2.78.31-4.88Z"/>
    <path class="cls-1" d="M560.64,898.69h-.32c0-1.82-.66-3.38-1.99-4.67-1.33-1.29-2.91-1.94-4.72-1.94h-1.26l-.11-1.05h8.4v7.66ZM560.64,956.85v7.66h-8.4v-1.05h1.37c1.82,0,3.38-.65,4.67-1.94s1.98-2.85,2.05-4.67h.32ZM570.08,891.02v73.49h-9.76v-73.49h9.76ZM598.64,891.02v3.68h-28.87v-3.68h28.87ZM593.91,926.51v3.57h-24.14v-3.57h24.14ZM569.77,956.85h.31c.07,1.82.75,3.38,2.05,4.67,1.29,1.3,2.85,1.94,4.67,1.94h1.36v1.05h-8.4v-7.66ZM598.64,889.14v3.04l-12.81-1.15c1.54,0,3.17-.1,4.88-.31,1.71-.21,3.31-.45,4.78-.73,1.47-.28,2.52-.56,3.15-.84ZM593.91,918.74v7.98h-7.35v-.21c1.82-.07,3.32-.73,4.52-1.99,1.19-1.26,1.78-2.76,1.78-4.52v-1.26h1.05ZM593.91,929.87v7.98h-1.05v-1.36c0-1.75-.6-3.25-1.78-4.52-1.19-1.26-2.7-1.89-4.52-1.89v-.21h7.35ZM598.64,894.39v8.61h-1.05v-1.47c0-1.96-.65-3.59-1.94-4.88-1.3-1.29-2.92-1.94-4.88-1.94v-.31h7.87Z"/>
    <path class="cls-1" d="M601.89,889.03c.7.28,1.77.56,3.2.84,1.43.28,3.03.53,4.78.73,1.75.21,3.36.32,4.83.32l-12.81,1.15v-3.04ZM664.77,890.92v3.57h-62.88v-3.57h62.88ZM610.61,894.17v.31c-2.24.07-4.08.82-5.51,2.26s-2.15,3.27-2.15,5.51v1.57l-1.05.11v-9.76h8.71ZM628.77,956.85v7.66h-8.4v-1.05h1.37c1.82,0,3.38-.65,4.67-1.94s1.98-2.85,2.05-4.67h.31ZM638.21,891.34v73.17h-9.76v-73.17h9.76ZM637.9,956.85h.31c.07,1.82.75,3.38,2.05,4.67,1.29,1.3,2.85,1.94,4.67,1.94h1.36v1.05h-8.4v-7.66ZM664.77,889.03v3.04l-12.81-1.15c1.54,0,3.17-.11,4.88-.32,1.71-.21,3.31-.45,4.78-.73,1.47-.28,2.52-.56,3.15-.84ZM664.77,894.17v9.76l-1.05-.11v-1.57c0-2.24-.72-4.08-2.15-5.51-1.44-1.43-3.27-2.19-5.51-2.26v-.31h8.71Z"/>
    <path class="cls-1" d="M675.38,898.69h-.32c0-1.82-.66-3.38-1.99-4.67-1.33-1.29-2.91-1.94-4.72-1.94h-1.26l-.11-1.05h8.4v7.66ZM675.38,956.85v7.66h-8.4v-1.05h1.37c1.82,0,3.38-.65,4.67-1.94s1.98-2.85,2.05-4.67h.32ZM684.82,891.02v73.49h-9.76v-73.49h9.76ZM713.38,891.02v3.68h-28.87v-3.68h28.87ZM708.65,926.51v3.57h-24.14v-3.57h24.14ZM712.96,960.84l.84,3.67h-29.29v-3.67h28.45ZM719.78,946.04l-5.67,18.48h-18.48l3.78-3.67c3.64,0,6.68-.61,9.13-1.84,2.45-1.22,4.48-2.96,6.09-5.2,1.61-2.24,2.97-4.83,4.09-7.77h1.05ZM713.38,889.14v3.04l-12.81-1.15c1.54,0,3.17-.1,4.88-.31,1.71-.21,3.31-.45,4.78-.73,1.47-.28,2.52-.56,3.15-.84ZM708.65,918.74v7.98h-7.35v-.21c1.82-.07,3.32-.73,4.52-1.99,1.19-1.26,1.78-2.76,1.78-4.52v-1.26h1.05ZM708.65,929.87v7.98h-1.05v-1.36c0-1.75-.6-3.25-1.78-4.52-1.19-1.26-2.7-1.89-4.52-1.89v-.21h7.35ZM713.38,894.39v9.66h-1.05v-1.68c0-2.17-.72-3.99-2.15-5.46-1.44-1.47-3.27-2.24-5.51-2.31v-.21h8.71Z"/>
    <path class="cls-1" d="M731.75,898.69h-.32c0-1.82-.66-3.38-1.99-4.67-1.33-1.29-2.91-1.94-4.72-1.94h-1.26l-.11-1.05h8.4v7.66ZM731.75,956.85v7.66h-8.4v-1.05h1.37c1.82,0,3.38-.65,4.67-1.94,1.29-1.29,1.98-2.85,2.05-4.67h.32ZM741.2,891.02v73.49h-9.76v-73.49h9.76ZM759.78,891.02c7.77,0,14.52,1.51,20.26,4.52,5.74,3.01,10.22,7.28,13.44,12.81,3.22,5.53,4.83,12,4.83,19.42s-1.61,13.88-4.83,19.37c-3.22,5.49-7.7,9.76-13.44,12.81s-12.49,4.57-20.26,4.57h-23.31l-.1-3.57h22.99c5.67,0,10.6-1.36,14.8-4.09,4.2-2.73,7.45-6.58,9.76-11.55s3.46-10.81,3.46-17.53-1.15-12.56-3.46-17.53-5.56-8.82-9.76-11.55c-4.2-2.73-9.13-4.1-14.8-4.1h-24.04v-3.57h24.46Z"/>
    <path class="cls-1" d="M833.79,898.69h-.32c-.07-1.82-.75-3.38-2.05-4.67-1.3-1.29-2.85-1.94-4.67-1.94h-1.37v-1.05h8.4v7.66ZM833.79,956.85v7.66h-8.4v-1.05h1.37c1.82,0,3.38-.65,4.67-1.94s1.98-2.85,2.05-4.67h.32ZM843.24,891.02v73.49h-9.76v-73.49h9.76ZM884.18,926.3v3.57h-41.99v-3.57h41.99ZM842.92,898.69v-7.66h8.4v1.05h-1.36c-1.82,0-3.38.65-4.67,1.94-1.3,1.3-1.98,2.85-2.05,4.67h-.31ZM842.92,956.85h.31c.07,1.82.75,3.38,2.05,4.67,1.29,1.3,2.85,1.94,4.67,1.94h1.36v1.05h-8.4v-7.66ZM883.55,898.69h-.32c0-1.82-.66-3.38-1.99-4.67-1.33-1.29-2.91-1.94-4.72-1.94h-1.37v-1.05h8.4v7.66ZM883.55,956.85v7.66h-8.4v-1.05h1.37c1.82,0,3.39-.65,4.72-1.94,1.33-1.29,1.99-2.85,1.99-4.67h.32ZM893,891.02v73.49h-9.76v-73.49h9.76ZM892.68,898.69v-7.66h8.4v1.05h-1.36c-1.82,0-3.38.65-4.67,1.94s-1.98,2.85-2.05,4.67h-.31ZM892.68,956.85h.31c.07,1.82.75,3.38,2.05,4.67,1.29,1.3,2.85,1.94,4.67,1.94h1.36v1.05h-8.4v-7.66Z"/>
    <path class="cls-1" d="M916.2,956.85c-.49,1.4-.56,2.59-.21,3.57.35.98.93,1.73,1.73,2.26.8.52,1.63.79,2.47.79h.95v1.05h-21.52v-1.05h.95c1.61,0,3.27-.51,4.99-1.52,1.71-1.01,3.13-2.71,4.25-5.09h6.4ZM938.77,889.35l.84,9.13-26.24,65.72h-6.82l26.98-63.09c.07-.14.33-.68.79-1.63.46-.95.95-2.08,1.47-3.41.52-1.33,1-2.62,1.42-3.88.42-1.26.63-2.2.63-2.83h.95ZM938.77,889.35l32.23,74.54h-12.28l-23.41-61.1,3.46-13.44ZM955.99,956.85h11.86c1.12,2.38,2.54,4.08,4.25,5.09,1.71,1.02,3.37,1.52,4.99,1.52h.84v1.05h-26.87v-1.05h.95c1.4,0,2.62-.58,3.67-1.73s1.15-2.78.31-4.88Z"/>
    <path class="cls-1" d="M979.92,898.58l-11.97.11c-1.05-2.38-2.45-4.08-4.2-5.09-1.75-1.01-3.43-1.52-5.04-1.52h-.84v-1.05h26.88v1.05h-.95c-1.33,0-2.5.56-3.52,1.68-1.02,1.12-1.14,2.73-.37,4.83ZM998.08,966.19l-33.28-74.54h12.28l24.56,61.1-3.57,13.44ZM998.08,966.19l-.73-9.13,27.51-65.72h6.72l-28.24,63.09c0,.14-.23.68-.68,1.63-.46.94-.96,2.08-1.52,3.41-.56,1.33-1.03,2.62-1.42,3.88-.39,1.26-.61,2.2-.68,2.83h-.95ZM1021.91,898.58c.77-2.1.63-3.71-.42-4.83-1.05-1.12-2.24-1.68-3.57-1.68h-.95v-1.05h21.52v1.05h-.94c-1.54,0-3.19.51-4.93,1.52-1.75,1.02-3.19,2.71-4.3,5.09l-6.4-.11Z"/>
    <path class="cls-1" d="M1045.64,898.69h-.32c0-1.82-.66-3.38-1.99-4.67-1.33-1.29-2.91-1.94-4.72-1.94h-1.26l-.11-1.05h8.4v7.66ZM1045.64,956.85v7.66h-8.4v-1.05h1.37c1.82,0,3.38-.65,4.67-1.94s1.98-2.85,2.05-4.67h.32ZM1055.08,891.02v73.49h-9.76v-73.49h9.76ZM1083.64,891.02v3.68h-28.87v-3.68h28.87ZM1078.91,926.51v3.57h-24.14v-3.57h24.14ZM1083.22,960.84l.84,3.67h-29.29v-3.67h28.45ZM1090.04,946.04l-5.67,18.48h-18.48l3.78-3.67c3.64,0,6.68-.61,9.13-1.84,2.45-1.22,4.48-2.96,6.09-5.2,1.61-2.24,2.97-4.83,4.09-7.77h1.05ZM1083.64,889.14v3.04l-12.81-1.15c1.54,0,3.17-.1,4.88-.31,1.71-.21,3.31-.45,4.78-.73,1.47-.28,2.52-.56,3.15-.84ZM1078.91,918.74v7.98h-7.35v-.21c1.82-.07,3.32-.73,4.52-1.99,1.19-1.26,1.78-2.76,1.78-4.52v-1.26h1.05ZM1078.91,929.87v7.98h-1.05v-1.36c0-1.75-.6-3.25-1.78-4.52-1.19-1.26-2.7-1.89-4.52-1.89v-.21h7.35ZM1083.64,894.39v9.66h-1.05v-1.68c0-2.17-.72-3.99-2.15-5.46-1.44-1.47-3.27-2.24-5.51-2.31v-.21h8.71Z"/>
    <path class="cls-1" d="M1100.86,957.06v7.45h-8.71v-1.05h1.99c1.75,0,3.25-.63,4.51-1.89,1.26-1.26,1.89-2.77,1.89-4.52h.32ZM1100.54,889.45l8.08,9.24.11,65.82h-8.19v-61.94c0-3.71-.35-8.08-1.05-13.12h1.05ZM1100.54,889.45l62.99,64.67,1.05,11.86-62.99-64.56-1.05-11.97ZM1108.73,957.06c0,1.75.63,3.25,1.89,4.52,1.26,1.26,2.76,1.89,4.52,1.89h1.99v1.05h-8.71v-7.45h.31ZM1147.89,891.02h8.71v7.45h-.21c-.07-1.82-.72-3.34-1.94-4.57-1.23-1.22-2.75-1.84-4.57-1.84h-1.99v-1.05ZM1164.47,891.02v61.52c0,2.38.09,4.6.26,6.67.17,2.06.44,4.32.79,6.77h-.95l-8.19-9.34v-65.61h8.08ZM1172.87,891.02v1.05h-1.89c-1.75,0-3.25.61-4.51,1.84-1.26,1.22-1.93,2.75-1.99,4.57h-.31v-7.45h8.71Z"/>
  </g>
</svg>