<?xml version="1.0" encoding="UTF-8"?>
<svg id="Layer_1" data-name="Layer 1" xmlns="http://www.w3.org/2000/svg" viewBox="0 0 1200 1200">
  <defs>
    <style>
      .cls-1 {
        fill: #000;
      }

      .cls-1, .cls-2 {
        stroke-width: 0px;
      }

      .cls-2 {
        fill: #fff;
      }
    </style>
  </defs>
  <g>
    <path class="cls-1" d="M177.38,646.04c0,3.41-2.56,6.26-3.45,9.39-1.02,3.27.51,9.24,4.85,7.25,1.92-1,2.05-4.69,1.66-6.69-.38-2.13-1.79-3.7-2.43-5.69-.26-1.14-.26-2.42-.38-3.55l-.26-.71Z"/>
    <path class="cls-1" d="M79.91,646.04c0,3.42-2.55,6.26-3.45,9.39-1.02,3.27.51,9.24,4.85,7.25,1.92-1,2.04-4.69,1.66-6.68-.38-2.13-1.79-3.7-2.43-5.69-.26-1.14-.26-2.42-.38-3.56l-.26-.71Z"/>
    <g>
      <g>
        <path class="cls-1" d="M128.83,534.36l-23.6,62.23c-.45,1.17-1.18,2.15-2.12,2.9-2.29,1.86-5.77,2.41-9.07,1.16-1.1-.42-2.08-.99-2.91-1.69-2.01-1.67-3.2-4-3.2-6.35,0-.81.14-1.63.44-2.41l30.82-81.25,9.64,25.42Z"/>
        <path class="cls-1" d="M162.02,446.85l-23.55,62.09-4.9-12.92c.07.27.21,1.61-4.74-.99,1.24-.65,2.79-1.55,4.75-2.77,14.49-9.05,22.93-55.46,22.93-55.46,1.52-4.01,7.03,6.04,5.51,10.05Z"/>
      </g>
      <path class="cls-1" d="M88.27,594.62c6.39,6.57,3.67,15.73-.38,22.62-3.2,5.44-10.91,5.25-12.38,11.66,1.21,2.55,3.65,2.22,4.49,5.66-2.49,4.61-5.35,11.86-4.7,16.05,3.73-6.01,4.96-13.1,14.03-16.8,5.05-10.05,8.39-23.58,13.44-33.62.1-.35.2-.39.41-.86l-14.85-5.13c-.03.08-.03.33-.06.41Z"/>
    </g>
    <g>
      <g>
        <path class="cls-2" d="M138.47,508.94l-9.64,25.42-9.64-25.42,4.9-12.92c-.07.27-.21,1.61,4.74-.99,4.95,2.6,4.81,1.26,4.74.99l4.9,12.92Z"/>
        <path class="cls-1" d="M128.83,495.03c-4.95,2.6-4.81,1.26-4.74.99l-4.9,12.92-23.55-62.09c-1.52-4.01,3.99-14.06,5.51-10.05,0,0,8.44,46.41,22.93,55.46,1.96,1.22,3.52,2.12,4.75,2.77Z"/>
        <path class="cls-1" d="M169.73,592.6c0,.57-.07,1.13-.2,1.69,0,.02,0,.06-.03.09-.43,1.7-1.45,3.3-2.93,4.53,0,0,0,0,0,0-.84.71-1.84,1.3-2.95,1.72-3.3,1.25-6.78.7-9.06-1.16-.94-.76-1.67-1.74-2.12-2.9l-23.6-62.23,9.64-25.42,30.82,81.25c.3.79.44,1.6.44,2.41Z"/>
      </g>
      <path class="cls-1" d="M169.36,594.73c-6.39,6.57-3.65,15.62.4,22.51,3.2,5.44,10.91,5.25,12.38,11.66-1.2,2.55-3.65,2.22-4.48,5.66,2.49,4.61,5.35,11.86,4.7,16.05-3.73-6.01-4.96-13.1-14.03-16.8-5.05-10.05-8.39-23.58-13.44-33.62-.1-.35-.19-.39-.41-.86l15.05-5.05c.03.08-.19.37-.16.44Z"/>
    </g>
  </g>
  <g>
    <path class="cls-1" d="M210.4,525.3h-.26c-.06-1.52-.63-2.82-1.71-3.9-1.08-1.08-2.38-1.62-3.9-1.62h-1.14v-.88h7.02v6.41ZM210.4,573.91v6.4h-7.02v-.88h1.14c1.52,0,2.82-.54,3.9-1.62s1.65-2.38,1.71-3.9h.26ZM218.3,518.9v61.41h-8.16v-61.41h8.16ZM252.51,548.38v2.98h-35.09v-2.98h35.09ZM218.03,525.3v-6.41h7.02v.88h-1.14c-1.52,0-2.82.54-3.9,1.62-1.08,1.08-1.65,2.38-1.71,3.9h-.26ZM218.03,573.91h.26c.06,1.52.63,2.82,1.71,3.9,1.08,1.08,2.38,1.62,3.9,1.62h1.14v.88h-7.02v-6.4ZM251.99,525.3h-.26c0-1.52-.56-2.82-1.67-3.9-1.11-1.08-2.43-1.62-3.95-1.62h-1.14v-.88h7.02v6.41ZM251.99,573.91v6.4h-7.02v-.88h1.14c1.52,0,2.84-.54,3.95-1.62,1.11-1.08,1.67-2.38,1.67-3.9h.26ZM259.88,518.9v61.41h-8.16v-61.41h8.16ZM259.62,525.3v-6.41h7.02v.88h-1.14c-1.52,0-2.82.54-3.9,1.62s-1.65,2.38-1.71,3.9h-.26ZM259.62,573.91h.26c.06,1.52.63,2.82,1.71,3.9,1.08,1.08,2.38,1.62,3.9,1.62h1.14v.88h-7.02v-6.4Z"/>
    <path class="cls-1" d="M279.27,573.91c-.41,1.17-.47,2.16-.18,2.98.29.82.77,1.45,1.45,1.89.67.44,1.36.66,2.06.66h.79v.88h-17.98v-.88h.79c1.34,0,2.73-.42,4.17-1.27,1.43-.85,2.62-2.27,3.55-4.26h5.35ZM298.13,517.5l.7,7.63-21.93,54.92h-5.7l22.55-52.73c.06-.12.28-.57.66-1.36.38-.79.79-1.74,1.23-2.85.44-1.11.83-2.19,1.18-3.25.35-1.05.53-1.84.53-2.37h.79ZM298.13,517.5l26.93,62.29h-10.26l-19.56-51.06,2.9-11.23ZM312.52,573.91h9.91c.93,1.99,2.12,3.41,3.55,4.26,1.43.85,2.82,1.27,4.17,1.27h.7v.88h-22.46v-.88h.79c1.17,0,2.19-.48,3.07-1.45.88-.97.97-2.33.26-4.08Z"/>
    <path class="cls-1" d="M335.86,574.08v6.23h-7.28v-.88h1.67c1.46,0,2.72-.53,3.77-1.58,1.05-1.05,1.58-2.31,1.58-3.77h.26ZM335.59,517.58l6.76,7.72.09,55.01h-6.84v-51.76c0-3.1-.29-6.76-.88-10.97h.88ZM335.59,517.58l52.64,54.04.88,9.91-52.64-53.96-.88-10ZM342.44,574.08c0,1.46.53,2.72,1.58,3.77,1.05,1.05,2.31,1.58,3.77,1.58h1.67v.88h-7.28v-6.23h.26ZM375.16,518.9h7.28v6.23h-.18c-.06-1.52-.6-2.79-1.62-3.82-1.02-1.02-2.3-1.54-3.82-1.54h-1.67v-.88ZM389.02,518.9v51.41c0,1.99.07,3.85.22,5.57.15,1.73.36,3.61.66,5.66h-.79l-6.84-7.81v-54.83h6.76ZM396.04,518.9v.88h-1.58c-1.46,0-2.72.51-3.77,1.54-1.05,1.02-1.61,2.3-1.67,3.82h-.26v-6.23h7.28Z"/>
    <path class="cls-1" d="M405.87,525.3h-.26c0-1.52-.56-2.82-1.67-3.9-1.11-1.08-2.43-1.62-3.95-1.62h-1.05l-.09-.88h7.02v6.41ZM405.87,573.91v6.4h-7.02v-.88h1.14c1.52,0,2.82-.54,3.9-1.62,1.08-1.08,1.65-2.38,1.71-3.9h.26ZM413.76,518.9v61.41h-8.16v-61.41h8.16ZM429.29,518.9c6.49,0,12.14,1.26,16.93,3.77,4.8,2.52,8.54,6.08,11.23,10.7,2.69,4.62,4.04,10.03,4.04,16.23s-1.35,11.6-4.04,16.19c-2.69,4.59-6.44,8.16-11.23,10.7s-10.44,3.82-16.93,3.82h-19.48l-.09-2.98h19.21c4.74,0,8.86-1.14,12.37-3.42s6.23-5.5,8.16-9.65,2.9-9.04,2.9-14.65-.97-10.5-2.9-14.65-4.65-7.37-8.16-9.65c-3.51-2.28-7.63-3.42-12.37-3.42h-20.09v-2.98h20.44Z"/>
    <path class="cls-1" d="M524.13,554.69l-.44,14.21c-1.46,2.4-3.32,4.55-5.57,6.45-2.25,1.9-4.96,3.41-8.11,4.52-3.16,1.11-6.82,1.67-10.97,1.67-6.44-.06-12.12-1.39-17.06-3.99-4.94-2.6-8.79-6.29-11.54-11.05-2.75-4.77-4.12-10.43-4.12-16.98s1.36-12.03,4.08-16.8c2.72-4.77,6.55-8.47,11.49-11.1,4.94-2.63,10.8-3.95,17.59-3.95,4.44,0,8.45.54,12.02,1.62,3.57,1.08,6.61,2.41,9.12,3.99l1.23,13.25h-.79c-1.4-5.38-4.02-9.37-7.85-11.98-3.83-2.6-8.29-3.9-13.38-3.9s-9.36,1.18-12.98,3.55c-3.63,2.37-6.43,5.7-8.42,10-1.99,4.3-2.98,9.37-2.98,15.22s.98,10.85,2.94,15.18c1.96,4.33,4.71,7.71,8.25,10.13,3.54,2.43,7.68,3.7,12.41,3.82,4.27,0,8.1-.76,11.49-2.28,3.39-1.52,6.2-4.02,8.42-7.5,2.22-3.48,3.71-8.17,4.47-14.08h.7Z"/>
    <path class="cls-1" d="M536.15,525.3h-.26c-.06-1.52-.63-2.82-1.71-3.9-1.08-1.08-2.38-1.62-3.9-1.62h-1.14v-.88h7.02v6.41ZM536.15,573.91v6.4h-7.02v-.88h1.14c1.52,0,2.82-.54,3.9-1.62s1.65-2.38,1.71-3.9h.26ZM544.04,518.9v61.41h-8.16v-61.41h8.16ZM554.92,518.9c2.63,0,5.09.35,7.37,1.05s4.23,1.74,5.83,3.11c1.61,1.38,2.88,3.09,3.82,5.13.94,2.05,1.4,4.45,1.4,7.19s-.61,5.31-1.84,7.85c-1.23,2.54-2.94,4.64-5.13,6.27-2.19,1.64-4.78,2.52-7.76,2.63,1.29.47,2.57,1.38,3.86,2.72,1.29,1.35,2.4,2.66,3.33,3.95,0,.06.37.61,1.1,1.67.73,1.05,1.65,2.36,2.76,3.9,1.11,1.55,2.24,3.09,3.38,4.61,1.14,1.52,2.15,2.78,3.03,3.77,1.17,1.4,2.32,2.59,3.47,3.55,1.14.97,2.37,1.73,3.68,2.28,1.32.56,2.79.83,4.43.83v.88h-6.14c-2.81,0-5.29-.36-7.46-1.1-2.16-.73-4.04-1.72-5.62-2.98s-2.92-2.62-4.04-4.08c-.23-.41-.72-1.17-1.45-2.28-.73-1.11-1.55-2.38-2.46-3.82-.91-1.43-1.8-2.85-2.68-4.26-.88-1.4-1.64-2.62-2.28-3.64-.64-1.02-1.05-1.68-1.23-1.97-.99-1.58-2.1-2.94-3.33-4.08-1.23-1.14-2.57-1.74-4.04-1.8v-.88c.06,0,.48.01,1.27.04.79.03,1.71.01,2.76-.04,1.52-.06,3.14-.32,4.87-.79,1.72-.47,3.3-1.37,4.74-2.72,1.43-1.34,2.5-3.33,3.2-5.97.17-.58.31-1.32.39-2.19.09-.88.1-1.78.04-2.72-.06-4.04-1.07-7.18-3.03-9.43-1.96-2.25-4.52-3.44-7.68-3.55-1.35-.12-2.75-.16-4.21-.13-1.46.03-2.72.04-3.77.04h-1.75c0-.06-.07-.34-.22-.83-.15-.5-.37-1.24-.66-2.24h12.02ZM543.78,573.91h.26c0,1.52.55,2.82,1.67,3.9,1.11,1.08,2.43,1.62,3.95,1.62h1.05v.88h-6.93v-6.4Z"/>
    <path class="cls-1" d="M591.68,573.91c-.41,1.17-.47,2.16-.17,2.98.29.82.77,1.45,1.45,1.89.67.44,1.36.66,2.06.66h.79v.88h-17.99v-.88h.79c1.34,0,2.73-.42,4.17-1.27,1.43-.85,2.62-2.27,3.55-4.26h5.35ZM610.55,517.5l.7,7.63-21.93,54.92h-5.7l22.55-52.73c.06-.12.28-.57.66-1.36.38-.79.79-1.74,1.23-2.85.44-1.11.83-2.19,1.18-3.25.35-1.05.53-1.84.53-2.37h.79ZM610.55,517.5l26.93,62.29h-10.26l-19.56-51.06,2.9-11.23ZM624.93,573.91h9.91c.93,1.99,2.12,3.41,3.55,4.26,1.43.85,2.82,1.27,4.17,1.27h.7v.88h-22.46v-.88h.79c1.17,0,2.19-.48,3.07-1.45s.97-2.33.26-4.08Z"/>
    <path class="cls-1" d="M649.23,525.3h-.26c0-1.52-.56-2.82-1.67-3.9-1.11-1.08-2.43-1.62-3.95-1.62h-1.05l-.09-.88h7.02v6.41ZM649.23,573.91v6.4h-7.02v-.88h1.14c1.52,0,2.82-.54,3.9-1.62s1.65-2.38,1.71-3.9h.26ZM657.13,518.9v61.41h-8.16v-61.41h8.16ZM680.99,518.9v3.07h-24.13v-3.07h24.13ZM677.04,548.55v2.98h-20.18v-2.98h20.18ZM656.87,573.91h.26c.06,1.52.63,2.82,1.71,3.9,1.08,1.08,2.38,1.62,3.9,1.62h1.14v.88h-7.02v-6.4ZM680.99,517.32v2.54l-10.7-.97c1.29,0,2.65-.09,4.08-.26,1.43-.17,2.76-.38,3.99-.61,1.23-.23,2.11-.47,2.63-.7ZM677.04,542.06v6.67h-6.14v-.18c1.52-.06,2.78-.61,3.77-1.67.99-1.05,1.49-2.31,1.49-3.77v-1.05h.88ZM677.04,551.36v6.67h-.88v-1.14c0-1.46-.5-2.72-1.49-3.77-1-1.05-2.25-1.58-3.77-1.58v-.17h6.14ZM680.99,521.71v7.19h-.88v-1.23c0-1.64-.54-3-1.62-4.08-1.08-1.08-2.44-1.62-4.08-1.62v-.26h6.58Z"/>
    <path class="cls-1" d="M683.71,517.23c.58.23,1.48.47,2.68.7,1.2.23,2.53.44,3.99.61,1.46.18,2.81.26,4.04.26l-10.7.97v-2.54ZM736.26,518.81v2.98h-52.55v-2.98h52.55ZM690.99,521.53v.26c-1.87.06-3.41.69-4.61,1.89s-1.8,2.73-1.8,4.61v1.32l-.88.09v-8.16h7.28ZM706.17,573.91v6.4h-7.02v-.88h1.14c1.52,0,2.82-.54,3.9-1.62s1.65-2.38,1.71-3.9h.26ZM714.07,519.16v61.15h-8.16v-61.15h8.16ZM713.8,573.91h.26c.06,1.52.63,2.82,1.71,3.9,1.08,1.08,2.38,1.62,3.9,1.62h1.14v.88h-7.02v-6.4ZM736.26,517.23v2.54l-10.7-.97c1.29,0,2.65-.09,4.08-.26,1.43-.17,2.76-.38,3.99-.61,1.23-.23,2.11-.47,2.63-.7ZM736.26,521.53v8.16l-.88-.09v-1.32c0-1.87-.6-3.41-1.8-4.61-1.2-1.2-2.73-1.83-4.61-1.89v-.26h7.28Z"/>
    <path class="cls-1" d="M745.12,525.3h-.26c0-1.52-.56-2.82-1.67-3.9-1.11-1.08-2.43-1.62-3.95-1.62h-1.05l-.09-.88h7.02v6.41ZM745.12,573.91v6.4h-7.02v-.88h1.14c1.52,0,2.82-.54,3.9-1.62s1.65-2.38,1.71-3.9h.26ZM753.02,518.9v61.41h-8.16v-61.41h8.16ZM776.88,518.9v3.07h-24.13v-3.07h24.13ZM772.93,548.55v2.98h-20.18v-2.98h20.18ZM776.53,577.24l.7,3.07h-24.48v-3.07h23.77ZM782.23,564.87l-4.74,15.44h-15.44l3.16-3.07c3.04,0,5.59-.51,7.63-1.54,2.05-1.02,3.74-2.47,5.09-4.34,1.34-1.87,2.48-4.04,3.42-6.49h.88ZM776.88,517.32v2.54l-10.7-.97c1.29,0,2.65-.09,4.08-.26,1.43-.17,2.76-.38,3.99-.61,1.23-.23,2.11-.47,2.63-.7ZM772.93,542.06v6.67h-6.14v-.18c1.52-.06,2.78-.61,3.77-1.67.99-1.05,1.49-2.31,1.49-3.77v-1.05h.88ZM772.93,551.36v6.67h-.88v-1.14c0-1.46-.5-2.72-1.49-3.77-1-1.05-2.25-1.58-3.77-1.58v-.17h6.14ZM776.88,521.71v8.07h-.88v-1.4c0-1.81-.6-3.33-1.8-4.56-1.2-1.23-2.73-1.87-4.61-1.93v-.17h7.28Z"/>
    <path class="cls-1" d="M792.23,525.3h-.26c0-1.52-.56-2.82-1.67-3.9-1.11-1.08-2.43-1.62-3.95-1.62h-1.05l-.09-.88h7.02v6.41ZM792.23,573.91v6.4h-7.02v-.88h1.14c1.52,0,2.82-.54,3.9-1.62s1.65-2.38,1.71-3.9h.26ZM800.13,518.9v61.41h-8.16v-61.41h8.16ZM815.66,518.9c6.49,0,12.14,1.26,16.93,3.77,4.8,2.52,8.54,6.08,11.23,10.7,2.69,4.62,4.04,10.03,4.04,16.23s-1.35,11.6-4.04,16.19c-2.69,4.59-6.44,8.16-11.23,10.7s-10.44,3.82-16.93,3.82h-19.48l-.09-2.98h19.21c4.74,0,8.86-1.14,12.37-3.42s6.23-5.5,8.16-9.65,2.9-9.04,2.9-14.65-.97-10.5-2.9-14.65c-1.93-4.15-4.65-7.37-8.16-9.65-3.51-2.28-7.63-3.42-12.37-3.42h-20.09v-2.98h20.44Z"/>
    <path class="cls-1" d="M877.51,525.3h-.26c-.06-1.52-.63-2.82-1.71-3.9-1.08-1.08-2.38-1.62-3.9-1.62h-1.14v-.88h7.02v6.41ZM877.51,573.91v6.4h-7.02v-.88h1.14c1.52,0,2.82-.54,3.9-1.62s1.65-2.38,1.71-3.9h.26ZM885.4,518.9v61.41h-8.16v-61.41h8.16ZM919.62,548.38v2.98h-35.09v-2.98h35.09ZM885.14,525.3v-6.41h7.02v.88h-1.14c-1.52,0-2.82.54-3.9,1.62s-1.65,2.38-1.71,3.9h-.26ZM885.14,573.91h.26c.06,1.52.63,2.82,1.71,3.9,1.08,1.08,2.38,1.62,3.9,1.62h1.14v.88h-7.02v-6.4ZM919.09,525.3h-.26c0-1.52-.56-2.82-1.67-3.9-1.11-1.08-2.43-1.62-3.95-1.62h-1.14v-.88h7.02v6.41ZM919.09,573.91v6.4h-7.02v-.88h1.14c1.52,0,2.84-.54,3.95-1.62,1.11-1.08,1.67-2.38,1.67-3.9h.26ZM926.99,518.9v61.41h-8.16v-61.41h8.16ZM926.72,525.3v-6.41h7.02v.88h-1.14c-1.52,0-2.82.54-3.9,1.62s-1.65,2.38-1.71,3.9h-.26ZM926.72,573.91h.26c.06,1.52.63,2.82,1.71,3.9,1.08,1.08,2.38,1.62,3.9,1.62h1.14v.88h-7.02v-6.4Z"/>
    <path class="cls-1" d="M946.38,573.91c-.41,1.17-.47,2.16-.17,2.98.29.82.77,1.45,1.45,1.89.67.44,1.36.66,2.06.66h.79v.88h-17.99v-.88h.79c1.34,0,2.73-.42,4.17-1.27,1.43-.85,2.62-2.27,3.55-4.26h5.35ZM965.24,517.5l.7,7.63-21.93,54.92h-5.7l22.55-52.73c.06-.12.28-.57.66-1.36.38-.79.79-1.74,1.23-2.85.44-1.11.83-2.19,1.18-3.25.35-1.05.53-1.84.53-2.37h.79ZM965.24,517.5l26.93,62.29h-10.26l-19.56-51.06,2.9-11.23ZM979.63,573.91h9.91c.93,1.99,2.12,3.41,3.55,4.26,1.43.85,2.82,1.27,4.17,1.27h.7v.88h-22.46v-.88h.79c1.17,0,2.19-.48,3.07-1.45s.97-2.33.26-4.08Z"/>
    <path class="cls-1" d="M999.63,525.22l-10,.09c-.88-1.99-2.05-3.41-3.51-4.26-1.46-.85-2.87-1.27-4.21-1.27h-.7v-.88h22.46v.88h-.79c-1.11,0-2.09.47-2.94,1.4-.85.94-.95,2.28-.31,4.04ZM1014.81,581.72l-27.81-62.29h10.27l20.53,51.06-2.98,11.23ZM1014.81,581.72l-.61-7.63,22.99-54.92h5.61l-23.6,52.73c0,.12-.19.57-.57,1.36-.38.79-.8,1.74-1.27,2.85-.47,1.11-.86,2.19-1.18,3.25-.32,1.05-.51,1.84-.57,2.37h-.79ZM1034.72,525.22c.64-1.76.53-3.1-.35-4.04-.88-.93-1.87-1.4-2.98-1.4h-.79v-.88h17.98v.88h-.79c-1.29,0-2.66.42-4.12,1.27-1.46.85-2.66,2.27-3.6,4.26l-5.35-.09Z"/>
    <path class="cls-1" d="M1054.55,525.3h-.26c0-1.52-.56-2.82-1.67-3.9-1.11-1.08-2.43-1.62-3.95-1.62h-1.05l-.09-.88h7.02v6.41ZM1054.55,573.91v6.4h-7.02v-.88h1.14c1.52,0,2.82-.54,3.9-1.62s1.65-2.38,1.71-3.9h.26ZM1062.44,518.9v61.41h-8.16v-61.41h8.16ZM1086.31,518.9v3.07h-24.13v-3.07h24.13ZM1082.36,548.55v2.98h-20.18v-2.98h20.18ZM1085.95,577.24l.7,3.07h-24.48v-3.07h23.77ZM1091.66,564.87l-4.74,15.44h-15.44l3.16-3.07c3.04,0,5.59-.51,7.63-1.54,2.05-1.02,3.74-2.47,5.09-4.34,1.34-1.87,2.48-4.04,3.42-6.49h.88ZM1086.31,517.32v2.54l-10.7-.97c1.29,0,2.65-.09,4.08-.26,1.43-.17,2.76-.38,3.99-.61,1.23-.23,2.11-.47,2.63-.7ZM1082.36,542.06v6.67h-6.14v-.18c1.52-.06,2.78-.61,3.77-1.67.99-1.05,1.49-2.31,1.49-3.77v-1.05h.88ZM1082.36,551.36v6.67h-.88v-1.14c0-1.46-.5-2.72-1.49-3.77-1-1.05-2.25-1.58-3.77-1.58v-.17h6.14ZM1086.31,521.71v8.07h-.88v-1.4c0-1.81-.6-3.33-1.8-4.56-1.2-1.23-2.73-1.87-4.61-1.93v-.17h7.28Z"/>
    <path class="cls-1" d="M1100.69,574.08v6.23h-7.28v-.88h1.67c1.46,0,2.72-.53,3.77-1.58s1.58-2.31,1.58-3.77h.26ZM1100.43,517.58l6.76,7.72.09,55.01h-6.84v-51.76c0-3.1-.29-6.76-.88-10.97h.88ZM1100.43,517.58l52.64,54.04.88,9.91-52.64-53.96-.88-10ZM1107.27,574.08c0,1.46.53,2.72,1.58,3.77,1.05,1.05,2.31,1.58,3.77,1.58h1.67v.88h-7.28v-6.23h.26ZM1140,518.9h7.28v6.23h-.17c-.06-1.52-.6-2.79-1.62-3.82-1.02-1.02-2.3-1.54-3.82-1.54h-1.67v-.88ZM1153.86,518.9v51.41c0,1.99.07,3.85.22,5.57.15,1.73.36,3.61.66,5.66h-.79l-6.84-7.81v-54.83h6.76ZM1160.88,518.9v.88h-1.58c-1.46,0-2.72.51-3.77,1.54-1.05,1.02-1.61,2.3-1.67,3.82h-.26v-6.23h7.28Z"/>
  </g>
</svg>