<svg width="20" height="21" viewBox="0 0 20 21" fill="none" xmlns="http://www.w3.org/2000/svg">
<g clip-path="url(#clip0_33_353)">
<path d="M19.8102 19.1499L14.6466 14.1344C15.9988 12.6843 16.8296 10.7665 16.8296 8.65614C16.8289 4.14172 13.0618 0.482574 8.41447 0.482574C3.76713 0.482574 0 4.14172 0 8.65614C0 13.1706 3.76713 16.8297 8.41447 16.8297C10.4224 16.8297 12.2641 16.1442 13.7107 15.0044L18.8944 20.0396C19.147 20.2852 19.5571 20.2852 19.8096 20.0396C20.0628 19.7941 20.0628 19.3955 19.8102 19.1499ZM8.41447 15.5722C4.48231 15.5722 1.29468 12.4758 1.29468 8.65614C1.29468 4.83652 4.48231 1.74013 8.41447 1.74013C12.3467 1.74013 15.5343 4.83652 15.5343 8.65614C15.5343 12.4758 12.3467 15.5722 8.41447 15.5722Z" fill="#1C0D00"/>
<path d="M19.8102 19.1499L14.6466 14.1344C15.9988 12.6843 16.8296 10.7665 16.8296 8.65614C16.8289 4.14172 13.0618 0.482574 8.41447 0.482574C3.76713 0.482574 0 4.14172 0 8.65614C0 13.1706 3.76713 16.8297 8.41447 16.8297C10.4224 16.8297 12.2641 16.1442 13.7107 15.0044L18.8944 20.0396C19.147 20.2852 19.5571 20.2852 19.8096 20.0396C20.0628 19.7941 20.0628 19.3955 19.8102 19.1499ZM8.41447 15.5722C4.48231 15.5722 1.29468 12.4758 1.29468 8.65614C1.29468 4.83652 4.48231 1.74013 8.41447 1.74013C12.3467 1.74013 15.5343 4.83652 15.5343 8.65614C15.5343 12.4758 12.3467 15.5722 8.41447 15.5722Z" fill="black" fill-opacity="0.2"/>
</g>
<defs>
<clipPath id="clip0_33_353">
<rect width="20" height="19.7413" fill="white" transform="translate(0 0.482574)"/>
</clipPath>
</defs>
</svg>
