<svg width="27" height="27" viewBox="0 0 27 27" fill="none" xmlns="http://www.w3.org/2000/svg">
<g clip-path="url(#clip0_33_341)">
<path d="M24.6904 3.77828C23.3212 2.30662 21.4027 1.46926 19.3926 1.46616C17.3809 1.46849 15.4604 2.3054 14.0891 3.77733L13.6218 4.27117L13.1544 3.77733C10.4334 0.848813 5.85354 0.680633 2.92507 3.40162C2.79531 3.52224 2.66998 3.64751 2.54936 3.77733C-0.33709 6.89072 -0.33709 11.7023 2.54936 14.8157L12.935 25.768C13.2943 26.1473 13.893 26.1635 14.2724 25.8042C14.2848 25.7925 14.2969 25.7804 14.3086 25.768L24.6904 14.8157C27.5767 11.7026 27.5767 6.89133 24.6904 3.77828ZM23.3215 13.513L13.6218 23.7425L3.92207 13.513C1.71699 11.1341 1.71699 7.45801 3.92207 5.07909C5.92455 2.90872 9.30738 2.77263 11.4778 4.77511C11.5831 4.87233 11.6845 4.97372 11.7818 5.07909L12.935 6.29571C13.315 6.67331 13.9286 6.67331 14.3086 6.29571L15.4618 5.08004C17.4643 2.90966 20.8471 2.77357 23.0175 4.77605C23.1229 4.87328 23.2243 4.97466 23.3215 5.08004C25.5458 7.46272 25.562 11.1455 23.3215 13.513Z" fill="#1C0D00"/>
<path d="M24.6904 3.77828C23.3212 2.30662 21.4027 1.46926 19.3926 1.46616C17.3809 1.46849 15.4604 2.3054 14.0891 3.77733L13.6218 4.27117L13.1544 3.77733C10.4334 0.848813 5.85354 0.680633 2.92507 3.40162C2.79531 3.52224 2.66998 3.64751 2.54936 3.77733C-0.33709 6.89072 -0.33709 11.7023 2.54936 14.8157L12.935 25.768C13.2943 26.1473 13.893 26.1635 14.2724 25.8042C14.2848 25.7925 14.2969 25.7804 14.3086 25.768L24.6904 14.8157C27.5767 11.7026 27.5767 6.89133 24.6904 3.77828ZM23.3215 13.513L13.6218 23.7425L3.92207 13.513C1.71699 11.1341 1.71699 7.45801 3.92207 5.07909C5.92455 2.90872 9.30738 2.77263 11.4778 4.77511C11.5831 4.87233 11.6845 4.97372 11.7818 5.07909L12.935 6.29571C13.315 6.67331 13.9286 6.67331 14.3086 6.29571L15.4618 5.08004C17.4643 2.90966 20.8471 2.77357 23.0175 4.77605C23.1229 4.87328 23.2243 4.97466 23.3215 5.08004C25.5458 7.46272 25.562 11.1455 23.3215 13.513Z" fill="black" fill-opacity="0.2"/>
</g>
<defs>
<clipPath id="clip0_33_341">
<rect width="26.4706" height="26.4706" fill="white" transform="translate(0.384521 0.529419)"/>
</clipPath>
</defs>
</svg>
