<svg width="220" height="15" viewBox="0 0 220 15" fill="none" xmlns="http://www.w3.org/2000/svg">
<path d="M2.09992 2.26168H2.04053C2.02682 1.9211 1.89662 1.62982 1.64991 1.38784C1.40321 1.14585 1.10625 1.02486 0.759035 1.02486H0.498621V0.827681H2.1022V2.26392L2.09992 2.26168ZM2.09992 13.1533V14.5873H0.496338V14.3901H0.756748C1.10396 14.3901 1.40092 14.2692 1.64763 14.0272C1.89433 13.7852 2.02454 13.4939 2.03824 13.1533H2.09763H2.09992ZM3.90452 0.827681V14.5873H2.04053V0.827681H3.90452ZM11.7214 7.43302V8.10073H3.70579V7.43302H11.7214ZM3.84513 2.26168V0.825439H5.44871V1.02261H5.1883C4.84108 1.02261 4.54412 1.14361 4.29742 1.38559C4.05071 1.62758 3.92051 1.91886 3.9068 2.25944H3.84741L3.84513 2.26168ZM3.84513 13.1533H3.90452C3.91822 13.4939 4.04843 13.7852 4.29514 14.0272C4.54184 14.2692 4.8388 14.3901 5.18601 14.3901H5.44642V14.5873H3.84284V13.1533H3.84513ZM11.6003 2.26168H11.5409C11.5409 1.9211 11.413 1.62982 11.1595 1.38784C10.9059 1.14585 10.6044 1.02486 10.2572 1.02486H9.99676V0.827681H11.6003V2.26392V2.26168ZM11.6003 13.1533V14.5873H9.99676V14.3901H10.2572C10.6044 14.3901 10.9059 14.2692 11.1595 14.0272C11.413 13.7852 11.5409 13.4939 11.5409 13.1533H11.6003ZM13.4027 0.827681V14.5873H11.5387V0.827681H13.4027ZM13.3433 2.26168V0.825439H14.9468V1.02261H14.6864C14.3392 1.02261 14.0423 1.14361 13.7956 1.38559C13.5488 1.62758 13.4186 1.91886 13.4049 2.25944H13.3455L13.3433 2.26168ZM13.3433 13.1533H13.4027C13.4164 13.4939 13.5466 13.7852 13.7933 14.0272C14.04 14.2692 14.3369 14.3901 14.6841 14.3901H14.9446V14.5873H13.341V13.1533H13.3433Z" fill="black"/>
<path d="M17.8319 13.1533C17.7383 13.4155 17.7246 13.6373 17.7908 13.821C17.8571 14.0047 17.9667 14.1459 18.122 14.2445C18.2751 14.3431 18.4327 14.3924 18.5926 14.3924H18.7731V14.5895H14.6659V14.3924H14.8464C15.1525 14.3924 15.47 14.2983 15.7989 14.1078C16.1256 13.9174 16.3974 13.5992 16.6098 13.1533H17.8319ZM22.1424 0.511732L22.3023 2.22132L17.2928 14.5268H15.9908L21.1419 2.71202C21.1556 2.68513 21.2059 2.5843 21.2927 2.4073C21.3795 2.23029 21.4731 2.01743 21.5736 1.76872C21.6741 1.52001 21.7632 1.27802 21.8432 1.04052C21.9231 0.805253 21.9642 0.628244 21.9642 0.509491H22.1447L22.1424 0.511732ZM22.1424 0.511732L28.294 14.4685H25.9504L21.4823 3.02795L22.1447 0.511732H22.1424ZM25.4272 13.1533H27.691C27.9034 13.5992 28.1753 13.9174 28.5019 14.1078C28.8286 14.2983 29.1461 14.3924 29.4545 14.3924H29.6144V14.5895H24.4838V14.3924H24.6643C24.9316 14.3924 25.1646 14.2848 25.3656 14.0675C25.5666 13.8501 25.5872 13.5454 25.425 13.1533H25.4272Z" fill="black"/>
<path d="M30.7588 13.1914V14.5873H29.0958V14.3901H29.4773C29.8108 14.3901 30.0986 14.2714 30.3385 14.0361C30.5783 13.8008 30.6994 13.5185 30.6994 13.1914H30.7588ZM30.6994 0.531904L32.2436 2.26166L32.2642 14.5873H30.7017V2.98986C30.7017 2.29527 30.6354 1.4752 30.5007 0.531904H30.7017H30.6994ZM30.6994 0.531904L42.724 12.6402L42.925 14.8607L30.9004 2.77028L30.6994 0.529663V0.531904ZM32.2619 13.1914C32.2619 13.5185 32.3829 13.8008 32.6228 14.0361C32.8626 14.2714 33.1505 14.3901 33.484 14.3901H33.8655V14.5873H32.2025V13.1914H32.2619ZM39.7361 0.827666H41.3991V2.22357H41.358C41.3443 1.883 41.2209 1.59844 40.9879 1.36766C40.7549 1.13911 40.4625 1.0226 40.1153 1.0226H39.7338V0.825425L39.7361 0.827666ZM42.9022 0.827666V12.3467C42.9022 12.7926 42.9181 13.2093 42.9524 13.5947C42.9867 13.9823 43.0346 14.4036 43.1032 14.8629H42.9227L41.3603 13.113V0.827666H42.9044H42.9022ZM44.5057 0.827666V1.02484H44.1448C43.8113 1.02484 43.5235 1.13911 43.2836 1.36989C43.0438 1.59844 42.9159 1.88524 42.9022 2.22581H42.8428V0.829907H44.5057V0.827666Z" fill="black"/>
<path d="M46.7512 2.26166H46.6918C46.6918 1.92109 46.5639 1.62981 46.3103 1.38782C46.0567 1.14584 45.7552 1.02484 45.408 1.02484H45.1681L45.1476 0.827667H46.7512V2.2639V2.26166ZM46.7512 13.1533V14.5873H45.1476V14.3901H45.408C45.7552 14.3901 46.0522 14.2691 46.2989 14.0272C46.5456 13.7852 46.6758 13.4939 46.6895 13.1533H46.7489H46.7512ZM48.5558 0.827667V14.5873H46.6918V0.827667H48.5558ZM52.101 0.827667C53.5835 0.827667 54.8741 1.10999 55.9683 1.67238C57.0648 2.23702 57.9191 3.03468 58.5336 4.06984C59.1481 5.10501 59.4565 6.31718 59.4565 7.70637C59.4565 9.09555 59.1481 10.3055 58.5336 11.3339C57.9191 12.3624 57.0625 13.1623 55.9683 13.7314C54.8741 14.3005 53.5835 14.5873 52.101 14.5873H47.6512L47.6306 13.9196H52.0188C53.1015 13.9196 54.0427 13.6642 54.8444 13.1533C55.6462 12.6424 56.2676 11.921 56.7084 10.9911C57.1493 10.0613 57.3709 8.96559 57.3709 7.70861C57.3709 6.45162 57.1493 5.35596 56.7084 4.4261C56.2676 3.49624 55.6462 2.77477 54.8444 2.2639C54.0427 1.75304 53.1015 1.49761 52.0188 1.49761H47.4296V0.829908H52.0987L52.101 0.827667Z" fill="black"/>
<path d="M73.7654 8.84683L73.6649 12.0307C73.3314 12.5685 72.9065 13.0502 72.3925 13.4759C71.8785 13.9017 71.2595 14.24 70.5399 14.4887C69.8181 14.7374 68.982 14.8629 68.0341 14.8629C66.563 14.8494 65.2655 14.5514 64.137 13.9689C63.0086 13.3863 62.1291 12.5595 61.501 11.493C60.8728 10.4242 60.5598 9.15604 60.5598 7.68843C60.5598 6.22083 60.8705 4.99297 61.4918 3.92419C62.1131 2.85542 62.988 2.02639 64.1165 1.43711C65.2449 0.847824 66.5835 0.552063 68.1346 0.552063C69.1488 0.552063 70.0648 0.673055 70.8803 0.915042C71.6958 1.15703 72.3902 1.45503 72.9636 1.80905L73.2446 4.77787H73.0641C72.7443 3.57242 72.1458 2.67841 71.2709 2.09361C70.396 1.51105 69.3772 1.21977 68.2145 1.21977C67.0518 1.21977 66.0764 1.48416 65.2495 2.01519C64.4203 2.54621 63.7807 3.29234 63.3261 4.2558C62.8715 5.21927 62.6454 6.35526 62.6454 7.66603C62.6454 8.97679 62.8692 10.0971 63.317 11.0673C63.7647 12.0375 64.3929 12.7948 65.2015 13.337C66.0102 13.8815 66.9559 14.1661 68.0363 14.1929C69.0117 14.1929 69.8866 14.0227 70.661 13.6821C71.4354 13.3415 72.0773 12.7814 72.5844 12.0016C73.0915 11.2219 73.4319 10.171 73.6055 8.84683H73.7654Z" fill="black"/>
<path d="M76.511 2.26167H76.4517C76.4379 1.9211 76.3077 1.62982 76.061 1.38783C75.8143 1.14584 75.5174 1.02485 75.1702 1.02485H74.9098V0.827675H76.5133V2.26391L76.511 2.26167ZM76.511 13.1533V14.5873H74.9075V14.3901H75.1679C75.5151 14.3901 75.812 14.2691 76.0588 14.0272C76.3055 13.7852 76.4357 13.4939 76.4494 13.1533H76.5088H76.511ZM78.3156 0.827675V14.5873H76.4517V0.827675H78.3156ZM80.801 0.827675C81.4017 0.827675 81.9637 0.906097 82.4845 1.06294C83.0053 1.21978 83.4508 1.45281 83.8163 1.75977C84.184 2.06898 84.4741 2.45212 84.6889 2.90921C84.9036 3.36854 85.0087 3.90629 85.0087 4.52022C85.0087 5.13414 84.8693 5.70998 84.5883 6.2791C84.3074 6.84822 83.9168 7.31875 83.4165 7.68397C82.9162 8.05143 82.3246 8.2486 81.6439 8.27325C81.9386 8.37856 82.2309 8.58246 82.5256 8.8827C82.8203 9.18518 83.0739 9.4787 83.2863 9.76774C83.2863 9.78119 83.3708 9.90442 83.5376 10.1419C83.7043 10.3772 83.9145 10.6707 84.168 11.0158C84.4216 11.3631 84.6797 11.7081 84.9401 12.0487C85.2005 12.3893 85.4313 12.6716 85.6323 12.8934C85.8995 13.2071 86.1622 13.4737 86.4249 13.6888C86.6853 13.9062 86.9663 14.0765 87.2655 14.1997C87.5671 14.3252 87.9029 14.3857 88.2775 14.3857V14.5828H86.8749C86.233 14.5828 85.6665 14.5022 85.1708 14.3364C84.6774 14.1728 84.248 13.951 83.8871 13.6687C83.5261 13.3863 83.22 13.0816 82.9642 12.7545C82.9117 12.6626 82.7997 12.4923 82.633 12.2436C82.4662 11.9949 82.2789 11.7104 82.071 11.3877C81.8632 11.0673 81.6599 10.7491 81.4589 10.4332C81.2578 10.1195 81.0842 9.84616 80.938 9.61762C80.7918 9.38908 80.6982 9.2412 80.6571 9.17622C80.4309 8.8222 80.1774 8.51748 79.8964 8.26205C79.6154 8.00662 79.3093 7.87218 78.9735 7.85874V7.66156C78.9872 7.66156 79.0832 7.6638 79.2636 7.67052C79.4441 7.67725 79.6543 7.67276 79.8941 7.66156C80.2413 7.64812 80.6114 7.58986 81.0066 7.48455C81.3995 7.37924 81.7604 7.17759 82.0893 6.8751C82.416 6.57486 82.6604 6.12898 82.8203 5.53746C82.8591 5.4075 82.8911 5.24169 82.9094 5.04676C82.9299 4.84959 82.9322 4.64793 82.9185 4.43731C82.9048 3.5321 82.6741 2.82855 82.2264 2.32441C81.7787 1.82027 81.1939 1.55364 80.472 1.52899C80.1637 1.5021 79.8438 1.49314 79.5103 1.49986C79.1768 1.50658 78.889 1.50882 78.6492 1.50882H78.2494C78.2494 1.49538 78.2334 1.43264 78.1991 1.32285C78.1649 1.21082 78.1146 1.04502 78.0484 0.820953H80.7941L80.801 0.827675ZM78.254 13.1533H78.3134C78.3134 13.4939 78.439 13.7852 78.6948 14.0272C78.9484 14.2691 79.2499 14.3901 79.5971 14.3901H79.837V14.5873H78.254V13.1533Z" fill="black"/>
<path d="M89.1981 13.1533C89.1045 13.4155 89.0908 13.6373 89.1593 13.821C89.2256 14.0047 89.3352 14.1459 89.4905 14.2445C89.6436 14.3431 89.8012 14.3924 89.9611 14.3924H90.1416V14.5895H86.0321V14.3924H86.2126C86.5187 14.3924 86.8362 14.2983 87.1651 14.1078C87.4918 13.9174 87.7636 13.5992 87.976 13.1533H89.1981ZM93.5064 0.511732L93.6662 2.22132L88.6568 14.5268H87.3547L92.5058 2.71202C92.5195 2.68513 92.5698 2.5843 92.6566 2.4073C92.7434 2.23029 92.837 2.01743 92.9376 1.76872C93.0381 1.52001 93.1272 1.27802 93.2071 1.04052C93.2871 0.805253 93.3282 0.628244 93.3282 0.509491H93.5086L93.5064 0.511732ZM93.5064 0.511732L99.658 14.4685H97.3143L92.8462 3.02795L93.5086 0.511732H93.5064ZM96.7935 13.1533H99.0572C99.2696 13.5992 99.5415 13.9174 99.8681 14.1078C100.195 14.2983 100.512 14.3924 100.821 14.3924H100.981V14.5895H95.85V14.3924H96.0305C96.2978 14.3924 96.5308 14.2848 96.7318 14.0675C96.9328 13.8501 96.9534 13.5454 96.7912 13.1533H96.7935Z" fill="black"/>
<path d="M102.344 2.2618H102.285C102.285 1.92123 102.157 1.62994 101.903 1.38796C101.65 1.14597 101.348 1.02498 101.001 1.02498H100.761L100.741 0.827804H102.344V2.26404V2.2618ZM102.344 13.1534V14.5874H100.741V14.3903H101.001C101.348 14.3903 101.645 14.2693 101.892 14.0273C102.139 13.7853 102.269 13.494 102.283 13.1534H102.342H102.344ZM104.147 0.827804V14.5874H102.283V0.827804H104.147ZM109.597 0.827804V1.51567H104.085V0.827804H109.597ZM108.697 7.47124V8.13894H104.087V7.47124H108.697ZM104.087 13.1534H104.147C104.16 13.494 104.291 13.7853 104.537 14.0273C104.784 14.2693 105.081 14.3903 105.428 14.3903H105.689V14.5874H104.085V13.1534H104.087ZM109.597 0.473785V1.0429L107.153 0.825562C107.447 0.825562 107.758 0.805398 108.085 0.767308C108.411 0.729217 108.715 0.682164 108.996 0.63063C109.277 0.579095 109.478 0.52532 109.597 0.473785ZM108.697 6.01708V7.51157H107.294V7.47124C107.642 7.45779 107.929 7.33456 108.156 7.09705C108.382 6.86179 108.496 6.57947 108.496 6.25234V6.01708H108.697ZM108.697 8.10085V9.59534H108.496V9.33991C108.496 9.01278 108.382 8.73046 108.156 8.4952C107.927 8.25994 107.642 8.14118 107.294 8.14118V8.10309H108.697V8.10085ZM109.597 1.45742V3.06842H109.396V2.79283C109.396 2.42537 109.273 2.12064 109.026 1.87865C108.779 1.63667 108.469 1.51567 108.094 1.51567V1.45742H109.597Z" fill="black"/>
<path d="M110.218 0.453491C110.351 0.505025 110.556 0.5588 110.83 0.610334C111.105 0.661868 111.408 0.708921 111.742 0.747012C112.075 0.787343 112.384 0.805268 112.665 0.805268L110.221 1.02261V0.453491H110.218ZM122.225 0.807509V1.47521H110.221V0.807509H122.225ZM111.884 1.41696V1.47521C111.456 1.48866 111.105 1.62982 110.83 1.89869C110.556 2.16756 110.419 2.51038 110.419 2.93161V3.22738L110.218 3.24754V1.4192H111.881L111.884 1.41696ZM115.349 13.1533V14.5873H113.745V14.3901H114.006C114.353 14.3901 114.65 14.2691 114.897 14.0272C115.143 13.7852 115.273 13.4939 115.287 13.1533H115.347H115.349ZM117.153 0.885931V14.5873H115.289V0.885931H117.153ZM117.094 13.1533H117.153C117.167 13.4939 117.297 13.7852 117.544 14.0272C117.791 14.2691 118.088 14.3901 118.435 14.3901H118.695V14.5873H117.092V13.1533H117.094ZM122.225 0.453491V1.02261L119.78 0.805268C120.075 0.805268 120.386 0.785102 120.712 0.747012C121.039 0.708921 121.343 0.661868 121.624 0.610334C121.905 0.5588 122.106 0.505025 122.225 0.453491ZM122.225 1.41696V3.2453L122.024 3.22514V2.92938C122.024 2.51038 121.886 2.16532 121.612 1.89645C121.338 1.62758 120.989 1.48642 120.559 1.47297V1.41472H122.222L122.225 1.41696Z" fill="black"/>
<path d="M124.248 2.2618H124.189C124.189 1.92123 124.061 1.62994 123.808 1.38796C123.554 1.14597 123.253 1.02498 122.905 1.02498H122.665L122.645 0.827804H124.248V2.26404V2.2618ZM124.248 13.1534V14.5874H122.645V14.3903H122.905C123.253 14.3903 123.549 14.2693 123.796 14.0273C124.043 13.7853 124.173 13.494 124.187 13.1534H124.246H124.248ZM126.051 0.827804V14.5874H124.187V0.827804H126.051ZM131.501 0.827804V1.51567H125.989V0.827804H131.501ZM130.601 7.47124V8.13894H125.991V7.47124H130.601ZM131.421 13.8996L131.581 14.5874H125.989V13.8996H131.419H131.421ZM132.723 11.1279L131.64 14.5874H128.114L128.835 13.8996C129.53 13.8996 130.112 13.7853 130.578 13.5545C131.047 13.326 131.433 13.0011 131.741 12.5821C132.047 12.1631 132.307 11.6769 132.522 11.1279H132.723ZM131.501 0.473785V1.0429L129.057 0.825562C129.352 0.825562 129.662 0.805398 129.989 0.767308C130.316 0.729217 130.619 0.682164 130.9 0.63063C131.181 0.579095 131.382 0.52532 131.501 0.473785ZM130.601 6.01708V7.51157H129.199V7.47124C129.546 7.45779 129.834 7.33456 130.06 7.09705C130.286 6.86179 130.4 6.57947 130.4 6.25234V6.01708H130.601ZM130.601 8.10085V9.59534H130.4V9.33991C130.4 9.01278 130.286 8.73046 130.06 8.4952C129.831 8.25994 129.546 8.14118 129.199 8.14118V8.10309H130.601V8.10085ZM131.501 1.45742V3.2656H131.3V2.95191C131.3 2.54636 131.163 2.20578 130.889 1.93019C130.615 1.65459 130.265 1.51119 129.836 1.49775V1.45966H131.499L131.501 1.45742Z" fill="black"/>
<path d="M135.01 2.26166H134.95C134.95 1.92109 134.823 1.62981 134.569 1.38782C134.315 1.14584 134.014 1.02484 133.667 1.02484H133.427L133.406 0.827667H135.01V2.2639V2.26166ZM135.01 13.1533V14.5873H133.406V14.3901H133.667C134.014 14.3901 134.311 14.2691 134.558 14.0272C134.804 13.7852 134.934 13.4939 134.948 13.1533H135.008H135.01ZM136.812 0.827667V14.5873H134.948V0.827667H136.812ZM140.36 0.827667C141.842 0.827667 143.133 1.10999 144.227 1.67238C145.323 2.23702 146.178 3.03468 146.792 4.06984C147.407 5.10501 147.715 6.31718 147.715 7.70637C147.715 9.09555 147.407 10.3055 146.792 11.3339C146.178 12.3624 145.321 13.1623 144.227 13.7314C143.133 14.3005 141.842 14.5873 140.36 14.5873H135.91L135.889 13.9196H140.277C141.36 13.9196 142.301 13.6642 143.103 13.1533C143.905 12.6424 144.526 11.921 144.967 10.9911C145.408 10.0613 145.63 8.96559 145.63 7.70861C145.63 6.45162 145.408 5.35596 144.967 4.4261C144.526 3.49624 143.905 2.77477 143.103 2.2639C142.301 1.75304 141.36 1.49761 140.277 1.49761H135.688V0.829908H140.357L140.36 0.827667Z" fill="black"/>
<path d="M154.488 2.26168H154.429C154.415 1.9211 154.285 1.62982 154.038 1.38784C153.791 1.14585 153.494 1.02486 153.147 1.02486H152.887V0.827681H154.49V2.26392L154.488 2.26168ZM154.488 13.1533V14.5873H152.885V14.3901H153.145C153.492 14.3901 153.789 14.2692 154.036 14.0272C154.283 13.7852 154.413 13.4939 154.426 13.1533H154.486H154.488ZM156.293 0.827681V14.5873H154.429V0.827681H156.293ZM164.107 7.43302V8.10073H156.092V7.43302H164.107ZM156.231 2.26168V0.825439H157.835V1.02261H157.574C157.227 1.02261 156.93 1.14361 156.683 1.38559C156.437 1.62758 156.306 1.91886 156.293 2.25944H156.233L156.231 2.26168ZM156.231 13.1533H156.29C156.304 13.4939 156.434 13.7852 156.681 14.0272C156.928 14.2692 157.225 14.3901 157.572 14.3901H157.832V14.5873H156.229V13.1533H156.231ZM163.986 2.26168H163.927C163.927 1.9211 163.799 1.62982 163.545 1.38784C163.292 1.14585 162.99 1.02486 162.643 1.02486H162.383V0.827681H163.986V2.26392V2.26168ZM163.986 13.1533V14.5873H162.383V14.3901H162.643C162.99 14.3901 163.292 14.2692 163.545 14.0272C163.799 13.7852 163.927 13.4939 163.927 13.1533H163.986ZM165.791 0.827681V14.5873H163.927V0.827681H165.791ZM165.731 2.26168V0.825439H167.335V1.02261H167.075C166.727 1.02261 166.43 1.14361 166.184 1.38559C165.937 1.62758 165.807 1.91886 165.793 2.25944H165.734L165.731 2.26168ZM165.731 13.1533H165.791C165.805 13.4939 165.935 13.7852 166.181 14.0272C166.428 14.2692 166.725 14.3901 167.072 14.3901H167.333V14.5873H165.729V13.1533H165.731Z" fill="black"/>
<path d="M170.22 13.1533C170.126 13.4155 170.113 13.6373 170.181 13.821C170.248 14.0047 170.357 14.1459 170.513 14.2445C170.666 14.3431 170.823 14.3924 170.983 14.3924H171.164V14.5895H167.054V14.3924H167.235C167.541 14.3924 167.858 14.2983 168.187 14.1078C168.514 13.9174 168.786 13.5992 168.998 13.1533H170.22ZM174.528 0.511732L174.688 2.22132L169.679 14.5268H168.377L173.528 2.71202C173.542 2.68513 173.592 2.5843 173.679 2.4073C173.765 2.23029 173.859 2.01743 173.96 1.76872C174.06 1.52001 174.149 1.27802 174.229 1.04052C174.309 0.805253 174.35 0.628244 174.35 0.509491H174.531L174.528 0.511732ZM174.528 0.511732L180.68 14.4685H178.336L173.868 3.02795L174.531 0.511732H174.528ZM177.815 13.1533H180.079C180.292 13.5992 180.563 13.9174 180.89 14.1078C181.217 14.2983 181.534 14.3924 181.843 14.3924H182.003V14.5895H176.872V14.3924H177.052C177.32 14.3924 177.553 14.2848 177.754 14.0675C177.955 13.8501 177.975 13.5454 177.813 13.1533H177.815Z" fill="black"/>
<path d="M182.384 2.24151L180.1 2.26168C179.899 1.81579 179.631 1.49763 179.298 1.30717C178.964 1.11672 178.642 1.02261 178.336 1.02261H178.176V0.825439H183.307V1.02261H183.126C182.873 1.02261 182.649 1.12792 182.455 1.3363C182.261 1.54692 182.238 1.84716 182.384 2.24151ZM185.852 14.901L179.499 0.944194H181.845L186.535 12.3848L185.854 14.901H185.852ZM185.852 14.901L185.712 13.1914L190.964 0.885937H192.245L186.854 12.7007C186.854 12.7276 186.811 12.8284 186.724 13.0054C186.637 13.1825 186.541 13.3953 186.434 13.644C186.327 13.8927 186.238 14.1347 186.164 14.3722C186.091 14.6075 186.048 14.7845 186.034 14.9032H185.854L185.852 14.901ZM190.4 2.24151C190.546 1.84716 190.521 1.54692 190.32 1.3363C190.119 1.12792 189.892 1.02261 189.639 1.02261H189.458V0.825439H193.566V1.02261H193.385C193.09 1.02261 192.778 1.11672 192.444 1.30717C192.111 1.49763 191.836 1.81579 191.622 2.26168L190.4 2.24151Z" fill="black"/>
<path d="M194.929 2.2618H194.87C194.87 1.92123 194.742 1.62994 194.489 1.38796C194.235 1.14597 193.933 1.02498 193.586 1.02498H193.346L193.326 0.827804H194.929V2.26404V2.2618ZM194.929 13.1534V14.5874H193.326V14.3903H193.586C193.933 14.3903 194.23 14.2693 194.477 14.0273C194.724 13.7853 194.854 13.494 194.868 13.1534H194.927H194.929ZM196.734 0.827804V14.5874H194.87V0.827804H196.734ZM202.184 0.827804V1.51567H196.672V0.827804H202.184ZM201.282 7.47124V8.13894H196.672V7.47124H201.282ZM202.104 13.8996L202.264 14.5874H196.672V13.8996H202.102H202.104ZM203.406 11.1279L202.324 14.5874H198.797L199.519 13.8996C200.213 13.8996 200.795 13.7853 201.261 13.5545C201.73 13.326 202.116 13.0011 202.424 12.5821C202.73 12.1631 202.991 11.6769 203.205 11.1279H203.406ZM202.184 0.473785V1.0429L199.74 0.825562C200.035 0.825562 200.345 0.805398 200.672 0.767308C200.999 0.729217 201.303 0.682164 201.584 0.63063C201.865 0.579095 202.066 0.52532 202.184 0.473785ZM201.282 6.01708V7.51157H199.879V7.47124C200.227 7.45779 200.515 7.33456 200.741 7.09705C200.967 6.86179 201.081 6.57947 201.081 6.25234V6.01708H201.282ZM201.282 8.10085V9.59534H201.081V9.33991C201.081 9.01278 200.967 8.73046 200.741 8.4952C200.512 8.25994 200.227 8.14118 199.879 8.14118V8.10309H201.282V8.10085ZM202.184 1.45742V3.2656H201.983V2.95191C201.983 2.54636 201.846 2.20578 201.572 1.93019C201.298 1.65459 200.949 1.51119 200.519 1.49775V1.45966H202.182L202.184 1.45742Z" fill="black"/>
<path d="M205.471 13.1914V14.5873H203.808V14.3901H204.19C204.523 14.3901 204.811 14.2714 205.051 14.0361C205.291 13.8008 205.412 13.5185 205.412 13.1914H205.471ZM205.41 0.531904L206.954 2.26166L206.974 14.5873H205.412V2.98986C205.412 2.29527 205.346 1.4752 205.211 0.531904H205.412H205.41ZM205.41 0.531904L217.434 12.6402L217.635 14.8607L205.611 2.77028L205.41 0.529663V0.531904ZM206.974 13.1914C206.974 13.5185 207.096 13.8008 207.335 14.0361C207.575 14.2714 207.863 14.3901 208.197 14.3901H208.578V14.5873H206.915V13.1914H206.974ZM214.449 0.827666H216.112V2.22357H216.073C216.059 1.883 215.936 1.59844 215.703 1.36766C215.47 1.13911 215.177 1.0226 214.83 1.0226H214.449V0.825425V0.827666ZM217.615 0.827666V12.3467C217.615 12.7926 217.631 13.2093 217.665 13.5947C217.699 13.9823 217.747 14.4036 217.816 14.8629H217.635L216.073 13.113V0.827666H217.617H217.615ZM219.218 0.827666V1.02484H218.857C218.524 1.02484 218.236 1.13911 217.996 1.36989C217.756 1.59844 217.629 1.88524 217.615 2.22581H217.555V0.829907H219.218V0.827666Z" fill="black"/>
</svg>
