<svg width="60" height="60" viewBox="0 0 60 60" fill="none" xmlns="http://www.w3.org/2000/svg">
<circle opacity="0.4" cx="30" cy="30" r="30" fill="#663333"/>
<g opacity="0.8">
<g clip-path="url(#clip0_23_97)">
<path d="M24.7399 23.7074C23.8121 23.7074 23.0572 24.4623 23.0572 25.3901C23.0572 26.318 23.8121 27.0728 24.7399 27.0728C25.6678 27.0728 26.4226 26.318 26.4226 25.3901C26.4226 24.4623 25.6678 23.7074 24.7399 23.7074ZM24.7399 26.1354C24.329 26.1354 23.9947 25.8011 23.9947 25.3902C23.9947 24.9793 24.329 24.645 24.7399 24.645C25.1509 24.645 25.4851 24.9793 25.4851 25.3902C25.4851 25.8011 25.1508 26.1354 24.7399 26.1354ZM25.6463 19.6976L20.5333 26.8147C20.3826 27.0241 20.0908 27.0716 19.8814 26.921C19.6721 26.7703 19.6245 26.4785 19.7752 26.2691L24.8882 19.152C25.0389 18.9427 25.3307 18.8951 25.5401 19.0458C25.7495 19.1965 25.797 19.4883 25.6463 19.6976ZM22.36 20.5242C22.36 19.5963 21.6051 18.8414 20.6773 18.8414C19.7495 18.8414 18.9946 19.5963 18.9946 20.5242C18.9946 21.452 19.7494 22.2069 20.6773 22.2069C21.6051 22.2069 22.36 21.452 22.36 20.5242ZM19.9321 20.5242C19.9321 20.1132 20.2664 19.7789 20.6773 19.7789C21.0881 19.7789 21.4225 20.1132 21.4225 20.5242C21.4225 20.9351 21.0882 21.2694 20.6773 21.2694C20.2664 21.2694 19.9321 20.935 19.9321 20.5242ZM44.3945 27.792L43.2573 21.6764C43.1159 20.917 42.8626 20.057 42.0547 19.4372C41.2944 18.8539 40.456 18.8 39.718 18.846L37.1718 16.0154C36.8251 15.63 36.3678 15.4263 35.8494 15.4263H17.3489C16.3682 15.4263 15.5703 16.2241 15.5703 17.2049V28.7094C15.5703 29.6902 16.3682 30.488 17.3489 30.488H24.0852L20.8458 34.7105C20.2489 35.4886 20.3963 36.6073 21.1743 37.2043L30.3022 44.2069C30.6245 44.4541 31.005 44.5736 31.3828 44.5736C31.9174 44.5736 32.4463 44.3342 32.7961 43.8783L44.057 29.1998C44.3725 28.7884 44.4893 28.3016 44.3945 27.792ZM17.3489 29.5505C16.8851 29.5505 16.5078 29.1732 16.5078 28.7094V17.2049C16.5078 16.7411 16.8852 16.3638 17.3489 16.3638H35.8494C36.1016 16.3638 36.3062 16.4549 36.4748 16.6424L38.5391 18.9372L33.3791 19.3413C32.8623 19.3818 32.4223 19.6206 32.1068 20.0319L24.8044 29.5505H17.3489ZM43.3132 28.6291L32.0523 43.3076C31.77 43.6757 31.241 43.7454 30.8729 43.463L21.7451 36.4605C21.3771 36.1782 21.3075 35.649 21.5897 35.2811L32.8506 20.6026C33.0041 20.4025 33.2009 20.2956 33.4523 20.276L39.6536 19.7903C40.2918 19.7404 40.9577 19.7771 41.4841 20.181C41.9327 20.5252 42.1794 21.008 42.3356 21.8478L43.4728 27.9633C43.5189 28.2112 43.4667 28.429 43.3132 28.6291ZM40.2348 21.8094C39.4971 21.2435 38.4364 21.3832 37.8704 22.121C37.3044 22.8587 37.4441 23.9194 38.1819 24.4854C38.9105 25.0445 39.9882 24.9015 40.5464 24.1739C41.1123 23.4362 40.9726 22.3754 40.2348 21.8094ZM39.8026 23.6033C39.5543 23.9268 39.0757 23.9896 38.7526 23.7416C38.429 23.4933 38.3661 23.015 38.6142 22.6916C38.7615 22.4996 38.9842 22.3988 39.2093 22.3988C39.8138 22.3989 40.1745 23.1184 39.8026 23.6033ZM39.4962 27.6944L37.9723 29.6813C37.8156 29.8866 37.5221 29.9259 37.3168 29.7692L33.2698 26.6654C33.0645 26.5087 33.0252 26.2152 33.1819 26.0099C33.3386 25.8046 33.6321 25.7653 33.8374 25.922L37.5141 28.7418L38.7528 27.1267C38.9095 26.9215 39.203 26.8821 39.4083 27.0388C39.6136 27.1956 39.6529 27.4891 39.4962 27.6944ZM30.567 36.5097C30.567 36.5097 28.5075 34.9303 28.5069 34.9298C27.7766 34.3697 26.6574 34.5172 26.096 35.2492L25.334 36.2427C25.1773 36.448 25.2167 36.7415 25.4219 36.8982L29.4689 40.002C29.6742 40.1588 29.9677 40.1194 30.1245 39.9141C30.1245 39.9141 30.8855 38.9218 30.8864 38.9207C31.4429 38.195 31.2887 37.0632 30.567 36.5097ZM30.143 38.353L29.6663 38.9746L26.3615 36.44C26.3615 36.44 26.8394 35.8168 26.8395 35.8168C27.0962 35.482 27.6002 35.4131 27.9393 35.6732C27.9393 35.6732 29.9993 37.253 29.9994 37.2531C30.3342 37.5099 30.4033 38.0137 30.143 38.353ZM34.182 34.6235L32.6582 36.6104C32.5014 36.8157 32.208 36.8551 32.0026 36.6983L27.9556 33.5946C27.7504 33.4378 27.711 33.1443 27.8677 32.939L29.3916 30.9521C29.5483 30.7468 29.8418 30.7075 30.0471 30.8642C30.2524 31.0209 30.2918 31.3144 30.135 31.5197L28.8952 33.1363L30.1765 34.119L30.9706 33.0836C31.1273 32.8784 31.4208 32.839 31.6261 32.9957C31.8314 33.1525 31.8707 33.446 31.714 33.6513L30.9187 34.6883L32.2 35.6709L33.4387 34.0559C33.5954 33.8507 33.8889 33.8113 34.0942 33.968C34.2995 34.1247 34.3388 34.4182 34.182 34.6235ZM36.8604 30.2066L31.8177 28.401L31.8172 28.4022C31.6805 28.3536 31.5232 28.369 31.3947 28.4578C31.1823 28.6044 31.129 28.8954 31.2757 29.1078L34.3271 33.5098C34.4737 33.7222 34.7647 33.7755 34.9771 33.6288C35.1894 33.4822 35.2428 33.1911 35.0961 32.9788L34.3658 31.9252L35.3384 30.6569L36.5454 31.0891C36.7891 31.176 37.0572 31.049 37.1442 30.8053C37.2311 30.5616 37.1041 30.2936 36.8604 30.2066ZM33.8062 31.1179L32.8753 29.775L34.4137 30.3258L33.8062 31.1179Z" fill="white"/>
</g>
</g>
<defs>
<clipPath id="clip0_23_97">
<rect width="30" height="30" fill="white" transform="translate(15 15)"/>
</clipPath>
</defs>
</svg>
