<svg width="25" height="52" viewBox="0 0 25 52" fill="none" xmlns="http://www.w3.org/2000/svg">
<path d="M23.3373 47.3149C23.3373 48.079 22.7525 48.7176 22.5492 49.4189C22.3162 50.1516 22.6657 51.4892 23.6571 51.0433C24.0957 50.8193 24.1254 49.9925 24.0363 49.5444C23.9495 49.0671 23.6274 48.7153 23.4812 48.2694C23.4218 48.014 23.4218 47.7272 23.3944 47.474L23.335 47.3149H23.3373Z" fill="black"/>
<path d="M1.07224 47.3149C1.07224 48.0812 0.489741 48.7176 0.284153 49.4189C0.0511544 50.1516 0.400653 51.4892 1.39204 51.0433C1.83063 50.8193 1.85804 49.9925 1.77124 49.5466C1.68443 49.0693 1.36234 48.7176 1.21615 48.2717C1.15676 48.0163 1.15676 47.7295 1.12935 47.474L1.06995 47.3149H1.07224Z" fill="black"/>
<path d="M12.247 22.2895L6.85608 36.2328C6.75329 36.495 6.58653 36.7146 6.37181 36.8826C5.8487 37.2994 5.05377 37.4226 4.29995 37.1425C4.04867 37.0484 3.82481 36.9207 3.63521 36.7639C3.17607 36.3897 2.90424 35.8676 2.90424 35.3411C2.90424 35.1596 2.93622 34.9759 3.00475 34.8011L10.045 16.5961L12.247 22.2917V22.2895Z" fill="black"/>
<path d="M19.8286 2.6841L14.4491 16.5961L13.3298 13.7012C13.3458 13.7617 13.3777 14.062 12.247 13.4794C12.5303 13.3338 12.8843 13.1321 13.3321 12.8587C16.642 10.831 18.57 0.432275 18.57 0.432275C18.9172 -0.466213 20.1758 1.78561 19.8286 2.6841Z" fill="black"/>
<path d="M2.98419 35.7915C4.44386 37.2635 3.82253 39.316 2.89739 40.8597C2.16641 42.0786 0.40521 42.0361 0.0694175 43.4723C0.345818 44.0437 0.903188 43.9697 1.09507 44.7405C0.526278 45.7734 -0.127033 47.3979 0.0214471 48.3367C0.873492 46.9901 1.15446 45.4015 3.22633 44.5724C4.3799 42.3206 5.14286 39.2891 6.29643 37.0395C6.31927 36.9611 6.34212 36.9521 6.39009 36.8468L2.9979 35.6974C2.99104 35.7153 2.99104 35.7713 2.98419 35.7892V35.7915Z" fill="black"/>
<path d="M14.4491 16.5961L12.2471 22.2917L10.045 16.5961L11.1643 13.7012C11.1483 13.7617 11.1163 14.0619 12.2471 13.4794C13.3778 14.0619 13.3458 13.7617 13.3298 13.7012L14.4491 16.5961Z" fill="white"/>
<path d="M12.247 13.4794C11.1163 14.062 11.1483 13.7617 11.1643 13.7012L10.045 16.5961L4.66544 2.6841C4.31823 1.78561 5.57688 -0.466213 5.9241 0.432275C5.9241 0.432275 7.85205 10.831 11.162 12.8587C11.6097 13.1321 11.9661 13.3338 12.247 13.4794Z" fill="black"/>
<path d="M21.5898 35.3411C21.5898 35.4688 21.5739 35.5943 21.5442 35.7198C21.5442 35.7243 21.5442 35.7332 21.5373 35.7399C21.4391 36.1208 21.2061 36.4793 20.868 36.7549C20.6761 36.914 20.4477 37.0462 20.1941 37.1403C19.4403 37.4204 18.6454 37.2972 18.1246 36.8804C17.9098 36.7101 17.7431 36.4905 17.6403 36.2306L12.2493 22.2873L14.4514 16.5916L21.4916 34.7966C21.5601 34.9736 21.5921 35.1551 21.5921 35.3366L21.5898 35.3411Z" fill="black"/>
<path d="M21.5053 35.8184C20.0456 37.2904 20.6715 39.3182 21.5967 40.862C22.3277 42.0809 24.0889 42.0383 24.4246 43.4745C24.1505 44.0459 23.5909 43.972 23.4013 44.7427C23.9701 45.7757 24.6234 47.4001 24.4749 48.3389C23.6229 46.9923 23.3419 45.4037 21.27 44.5747C20.1165 42.3229 19.3535 39.2913 18.1999 37.0417C18.1771 36.9633 18.1565 36.9544 18.1063 36.849L21.5441 35.7175C21.551 35.7355 21.5007 35.8004 21.5076 35.8161L21.5053 35.8184Z" fill="black"/>
</svg>
