<svg width="60" height="60" viewBox="0 0 60 60" fill="none" xmlns="http://www.w3.org/2000/svg">
<circle cx="30" cy="30" r="30" fill="#FF6500"/>
<g clip-path="url(#clip0_23_73)">
<path d="M34.9812 27.5277C35.4811 27.033 35.7913 26.3471 35.7913 25.5899C35.7913 24.0859 34.5675 22.8623 33.0632 22.8623C31.904 22.8623 30.8766 23.5971 30.493 24.6739C30.3322 24.6443 30.1668 24.628 29.9976 24.628C29.8283 24.628 29.6629 24.6443 29.5021 24.6739C29.1185 23.5971 28.091 22.8623 26.9319 22.8623C25.4276 22.8623 24.2038 24.0859 24.2038 25.5899C24.2038 26.3471 24.5141 27.033 25.014 27.5277C23.8149 28.2108 23.043 29.5042 23.043 30.9108C23.043 31.1536 23.2397 31.3503 23.4824 31.3503C23.7251 31.3503 23.9219 31.1536 23.9219 30.9108C23.9219 29.6685 24.6997 28.5403 25.8591 28.0979C26.1886 28.2394 26.5512 28.318 26.932 28.318C27.0997 28.318 27.2657 28.3018 27.4283 28.2718C27.5672 28.6604 27.7916 29.0084 28.0791 29.2932C26.8691 29.9783 26.1087 31.2621 26.1087 32.6767C26.1087 32.9195 26.3055 33.1162 26.5482 33.1162C26.7909 33.1162 26.9876 32.9195 26.9876 32.6767C26.9876 31.4642 27.7093 30.3755 28.8261 29.9031C28.856 29.8904 28.8836 29.8747 28.909 29.8567C29.2427 30.0025 29.6107 30.084 29.9976 30.084C30.3784 30.084 30.7411 30.0053 31.0707 29.8637C32.2295 30.3062 33.0075 31.4355 33.0075 32.6767C33.0075 32.9195 33.2042 33.1162 33.4469 33.1162C33.6896 33.1162 33.8864 32.9195 33.8864 32.6767C33.8864 31.2713 33.1143 29.9769 31.9156 29.2936C32.2033 29.0088 32.4279 28.6605 32.5669 28.2718C32.7295 28.3018 32.8954 28.318 33.0631 28.318C33.4439 28.318 33.8065 28.2394 34.136 28.0979C35.2953 28.5403 36.0732 29.6684 36.0732 30.9108C36.0732 31.1536 36.2699 31.3503 36.5126 31.3503C36.7553 31.3503 36.9521 31.1536 36.9521 30.9108C36.9522 29.5041 36.1803 28.2108 34.9812 27.5277ZM27.2697 27.356C27.2697 27.3733 27.2706 27.3903 27.2709 27.4074C27.1603 27.4281 27.0469 27.4391 26.932 27.4391C25.9123 27.4391 25.0827 26.6096 25.0827 25.5899C25.0827 24.5706 25.9123 23.7412 26.932 23.7412C27.7187 23.7412 28.4155 24.2404 28.6749 24.9713C27.8375 25.4376 27.2697 26.3315 27.2697 27.356ZM28.1486 27.356C28.1486 26.3365 28.978 25.5069 29.9976 25.5069C31.0172 25.5069 31.8467 26.3364 31.8467 27.356C31.8467 28.3756 31.0172 29.2051 29.9976 29.2051C28.978 29.2051 28.1486 28.3755 28.1486 27.356ZM32.7242 27.4074C32.7245 27.3903 32.7255 27.3732 32.7255 27.356C32.7255 26.3315 32.1576 25.4376 31.3203 24.9713C31.5797 24.2404 32.2765 23.7413 33.0632 23.7413C34.0829 23.7413 34.9124 24.5706 34.9124 25.5899C34.9124 26.6096 34.0829 27.4391 33.0632 27.4391C32.9483 27.4391 32.8349 27.4281 32.7242 27.4074Z" fill="white"/>
<path d="M41.3797 33.9925V26.0046C42.4751 25.7978 43.3064 24.8343 43.3064 23.6797C43.3064 22.3748 42.2449 21.3133 40.94 21.3133C40.2229 21.3133 39.5797 21.6344 39.1454 22.1398L32.232 18.1481C32.318 17.9032 32.3653 17.6402 32.3653 17.3663C32.3653 16.0615 31.3038 15 29.9989 15C28.6941 15 27.6325 16.0615 27.6325 17.3664C27.6325 17.6403 27.6798 17.9032 27.7658 18.1481L20.8525 22.1398C20.4182 21.6344 19.775 21.3133 19.0578 21.3133C17.753 21.3133 16.6914 22.3748 16.6914 23.6797C16.6914 24.8343 17.5227 25.7978 18.6182 26.0046V33.9925C17.5227 34.1992 16.6914 35.1628 16.6914 36.3174C16.6914 37.6222 17.753 38.6838 19.0578 38.6838C19.7739 38.6838 20.4161 38.3637 20.8504 37.8597L27.7657 41.8521C27.6798 42.0969 27.6325 42.3598 27.6325 42.6336C27.6325 43.9385 28.6941 45.0001 29.9989 45.0001C31.3038 45.0001 32.3654 43.9385 32.3654 42.6336C32.3654 42.3598 32.3181 42.0969 32.2321 41.8521L39.1475 37.8597C39.5818 38.3637 40.224 38.6838 40.94 38.6838C42.2449 38.6838 43.3065 37.6222 43.3065 36.3174C43.3064 35.1627 42.475 34.1992 41.3797 33.9925ZM40.94 22.1922C41.7602 22.1922 42.4275 22.8595 42.4275 23.6797C42.4275 24.4999 41.7602 25.1672 40.94 25.1672C40.1198 25.1672 39.4525 24.4999 39.4525 23.6797C39.4525 22.8595 40.1198 22.1922 40.94 22.1922ZM29.9989 15.8789C30.8191 15.8789 31.4865 16.5462 31.4865 17.3664C31.4865 18.1858 30.8204 18.8526 30.0012 18.8539C30.0005 18.8539 29.9997 18.8537 29.9989 18.8537C29.9982 18.8537 29.9974 18.8539 29.9967 18.8539C29.1775 18.8526 28.5114 18.1858 28.5114 17.3664C28.5114 16.5462 29.1787 15.8789 29.9989 15.8789ZM17.5703 23.6797C17.5703 22.8595 18.2376 22.1922 19.0578 22.1922C19.878 22.1922 20.5454 22.8595 20.5454 23.6797C20.5454 24.4999 19.878 25.1672 19.0578 25.1672C18.2376 25.1672 17.5703 24.4999 17.5703 23.6797ZM19.0578 37.8048C18.2376 37.8048 17.5703 37.1375 17.5703 36.3173C17.5703 35.4971 18.2376 34.8298 19.0578 34.8298C19.878 34.8298 20.5454 35.4971 20.5454 36.3173C20.5454 37.1375 19.878 37.8048 19.0578 37.8048ZM29.9989 44.1211C29.1787 44.1211 28.5114 43.4538 28.5114 42.6336C28.5114 41.8134 29.1787 41.146 29.9989 41.146C30.8191 41.146 31.4865 41.8134 31.4865 42.6336C31.4865 43.4538 30.8191 44.1211 29.9989 44.1211ZM31.7916 41.0915C31.4484 40.693 30.9753 40.41 30.4383 40.3087V38.6157C30.4383 38.3729 30.2416 38.1762 29.9989 38.1762C29.7562 38.1762 29.5594 38.3729 29.5594 38.6157V40.3087C29.0225 40.41 28.5494 40.693 28.2061 41.0915L21.2909 37.0991C21.3769 36.8542 21.4242 36.5913 21.4242 36.3174C21.4242 36.0432 21.3768 35.78 21.2907 35.5349L22.7573 34.6879C22.9675 34.5665 23.0394 34.2977 22.9181 34.0876C22.7967 33.8774 22.528 33.8055 22.3177 33.9268L20.8498 34.7745C20.5066 34.3764 20.0337 34.0936 19.497 33.9925V26.0046C20.0338 25.9034 20.5069 25.6205 20.8501 25.2222L22.32 26.0711C22.3892 26.111 22.4648 26.13 22.5394 26.13C22.6912 26.13 22.8389 26.0512 22.9203 25.9103C23.0417 25.7001 22.9697 25.4313 22.7595 25.3099L21.2907 24.4617C21.3768 24.2167 21.4241 23.9537 21.4241 23.6797C21.4241 23.4069 21.3772 23.145 21.2918 22.9009L28.2061 18.9086C28.5493 19.307 29.0224 19.59 29.5593 19.6912V21.3844C29.5593 21.6272 29.756 21.8239 29.9987 21.8239C30.2414 21.8239 30.4382 21.6272 30.4382 21.3844V19.6912C30.975 19.59 31.4481 19.307 31.7913 18.9086L38.7056 22.9009C38.6203 23.145 38.5733 23.4069 38.5733 23.6797C38.5733 23.9537 38.6207 24.2167 38.7067 24.4617L37.2379 25.3099C37.0277 25.4313 36.9557 25.7001 37.0771 25.9103C37.1585 26.0512 37.3062 26.13 37.458 26.13C37.5326 26.13 37.6082 26.111 37.6774 26.0711L39.1473 25.2222C39.4905 25.6205 39.9636 25.9034 40.5004 26.0046V33.9925C39.9637 34.0936 39.4908 34.3764 39.1476 34.7745L37.6797 33.9268C37.4695 33.8056 37.2007 33.8774 37.0793 34.0876C36.9579 34.2977 37.0299 34.5665 37.2401 34.6879L38.7067 35.5349C38.6206 35.78 38.5732 36.0432 38.5732 36.3174C38.5732 36.5913 38.6205 36.8542 38.7065 37.0991L31.7916 41.0915ZM40.94 37.8048C40.1198 37.8048 39.4525 37.1375 39.4525 36.3173C39.4525 35.4971 40.1198 34.8298 40.94 34.8298C41.7602 34.8298 42.4275 35.4971 42.4275 36.3173C42.4275 37.1375 41.7602 37.8048 40.94 37.8048Z" fill="white"/>
<path d="M33.6809 34.5405H32.373C32.1304 34.5405 31.9336 34.7372 31.9336 34.98C31.9336 35.2227 32.1304 35.4194 32.373 35.4194H33.6809C33.9236 35.4194 34.1203 35.2227 34.1203 34.98C34.1203 34.7372 33.9236 34.5405 33.6809 34.5405Z" fill="white"/>
<path d="M33.6797 36.2617H26.3181C26.0754 36.2617 25.8787 36.4584 25.8787 36.7012C25.8787 36.9439 26.0754 37.1406 26.3181 37.1406H33.6797C33.9224 37.1406 34.1192 36.9439 34.1192 36.7012C34.1192 36.4584 33.9224 36.2617 33.6797 36.2617Z" fill="white"/>
<path d="M26.3181 35.4194H26.3242C26.5669 35.4194 26.7637 35.2227 26.7637 34.98C26.7637 34.7372 26.5669 34.5405 26.3242 34.5405H26.3181C26.0754 34.5405 25.8787 34.7372 25.8787 34.98C25.8787 35.2227 26.0754 35.4194 26.3181 35.4194Z" fill="white"/>
<path d="M27.8479 35.4194C28.0906 35.4194 28.2873 35.2227 28.2873 34.98C28.2873 34.7372 28.0906 34.5405 27.8479 34.5405H27.8418C27.5991 34.5405 27.4023 34.7372 27.4023 34.98C27.4023 35.2227 27.5991 35.4194 27.8418 35.4194H27.8479Z" fill="white"/>
<path d="M29.3674 35.4194C29.6101 35.4194 29.8069 35.2227 29.8069 34.98C29.8069 34.7372 29.6101 34.5405 29.3674 34.5405H29.3613C29.1186 34.5405 28.9219 34.7372 28.9219 34.98C28.9219 35.2227 29.1186 35.4194 29.3613 35.4194H29.3674Z" fill="white"/>
</g>
<defs>
<clipPath id="clip0_23_73">
<rect width="30" height="30" fill="white" transform="translate(15 15)"/>
</clipPath>
</defs>
</svg>
