<svg width="60" height="60" viewBox="0 0 60 60" fill="none" xmlns="http://www.w3.org/2000/svg">
<circle cx="30" cy="30" r="30" fill="#FF6500"/>
<g opacity="0.8">
<path d="M36.4453 38.2031C36.1219 38.2031 35.8594 38.4656 35.8594 38.7891C35.8594 39.1125 36.1219 39.375 36.4453 39.375C36.7688 39.375 37.0312 39.1125 37.0312 38.7891C37.0312 38.4656 36.7688 38.2031 36.4453 38.2031Z" fill="white"/>
<path d="M37.888 36.3084L35.103 35.3803L34.1033 33.3806C35.004 32.4639 35.6293 31.2509 35.8402 29.9856L35.9649 29.2383H37.0312C38.0005 29.2383 38.7891 28.4497 38.7891 27.4805V23.7891C38.7891 18.9428 34.8463 15 30 15C25.1413 15 21.2109 18.9315 21.2109 23.7891V27.4805C21.2109 28.2443 21.7008 28.8956 22.3828 29.1375V29.8242C22.3828 30.7935 23.1714 31.582 24.1406 31.582H24.6552C24.9092 32.1338 25.238 32.6449 25.638 33.1039C25.721 33.1993 25.8076 33.2918 25.8962 33.3817L24.897 35.3803L22.1119 36.3084C18.8737 37.3882 16.5234 40.7971 16.5234 44.4141C16.5234 44.7377 16.7858 45 17.1094 45H42.8906C43.2142 45 43.4766 44.7377 43.4766 44.4141C43.4766 40.7971 41.1263 37.3882 37.888 36.3084ZM37.6172 27.4805C37.6172 27.8036 37.3543 28.0664 37.0312 28.0664H36.137C36.2859 26.9127 36.3852 25.685 36.4251 24.4758C36.4263 24.4417 36.4272 24.4085 36.4283 24.375H37.6172V27.4805ZM22.9688 28.0664C22.6457 28.0664 22.3828 27.8036 22.3828 27.4805V24.375H23.5721C23.5741 24.4361 23.5761 24.4975 23.5784 24.5593C23.5785 24.5614 23.5786 24.5635 23.5787 24.5656C23.5787 24.5658 23.5787 24.566 23.5787 24.5661C23.6197 25.7422 23.7176 26.9381 23.8632 28.0663H22.9688V28.0664ZM24.1406 30.4102C23.8175 30.4102 23.5547 30.1473 23.5547 29.8242V29.2383H24.035L24.1597 29.9859C24.1835 30.128 24.2128 30.2695 24.2466 30.4102H24.1406ZM23.5557 23.2031H22.4051C22.7019 19.2761 25.9791 16.1719 30 16.1719C34.003 16.1719 37.2947 19.2757 37.5949 23.2031H36.4444C36.4022 19.9672 33.767 17.3438 30.5245 17.3438H29.4756C26.2331 17.3438 23.5978 19.9672 23.5557 23.2031ZM29.4756 18.5156H30.5244C33.1499 18.5156 35.275 20.6631 35.2734 23.2857C35.2734 23.4701 35.272 23.6307 35.2689 23.7768C35.2689 23.7786 35.2688 23.7806 35.2688 23.7825L34.5359 23.6778C32.5449 23.3935 30.665 22.4535 29.2424 21.031C29.1325 20.9211 28.9835 20.8594 28.8281 20.8594C27.2545 20.8594 25.7482 21.5763 24.7525 22.7876C24.9979 20.4017 27.0148 18.5156 29.4756 18.5156ZM25.4613 30.4102C25.168 29.4344 24.8324 26.5633 24.7582 24.7235L25.5468 23.6719C26.2711 22.7065 27.3979 22.1067 28.5966 22.0379C30.1737 23.5388 32.2141 24.53 34.3702 24.8378L35.2328 24.9611C35.1752 26.1848 35.0573 27.4129 34.8885 28.5422C34.8885 28.5426 34.8884 28.543 34.8884 28.5434C34.8347 28.9065 34.7924 29.1402 34.6843 29.7929C34.374 31.6541 32.9852 33.3372 31.1519 33.7956C30.3974 33.984 29.6025 33.9839 28.8484 33.7956C27.7037 33.5094 26.654 32.7173 25.9766 31.582H27.1711C27.413 32.264 28.0642 32.7539 28.8281 32.7539H30C30.9712 32.7539 31.7578 31.9673 31.7578 30.9961C31.7578 30.0268 30.9693 29.2383 30 29.2383H28.8281C28.0472 29.2383 27.4056 29.7427 27.1701 30.4102H25.4613ZM28.7788 34.9814C29.1807 35.0661 29.5905 35.1094 30 35.1094C30.3206 35.1094 30.6412 35.0825 30.9582 35.0305L29.9228 36.1254L28.7788 34.9814ZM29.1173 36.9773L27.2588 38.9426C26.7472 37.9633 26.3075 36.9441 25.947 35.9006L26.6449 34.5048L29.1173 36.9773ZM33.2558 34.3063L34.0529 35.9006C33.6918 36.9458 33.252 37.9654 32.7409 38.9435L30.7518 36.9544L33.2558 34.3063ZM28.2422 30.9961C28.2422 30.6726 28.5046 30.4102 28.8281 30.4102H30C30.3231 30.4102 30.5859 30.673 30.5859 30.9961C30.5859 31.3196 30.3235 31.582 30 31.582H28.8281C28.505 31.582 28.2422 31.3192 28.2422 30.9961ZM17.7188 43.8281C17.951 40.9254 19.8827 38.2871 22.4825 37.4201L24.949 36.5982C25.4009 37.8477 25.9607 39.0622 26.6167 40.2158C26.6179 40.2178 26.6189 40.2197 26.62 40.2217L26.6201 40.2218C27.0994 41.0649 27.639 41.8888 28.2239 42.671L28.9447 43.8281H17.7188ZM30 43.3058L29.2054 42.0301C29.1964 42.0158 29.187 42.0019 29.1769 41.9884C28.7024 41.3555 28.2598 40.6935 27.8566 40.016L29.9463 37.8062L32.1481 40.008C31.7423 40.6905 31.2981 41.3552 30.8232 41.9883C30.7945 42.0265 30.8353 41.9662 30 43.3058ZM31.0553 43.8281L31.776 42.671C32.3636 41.8859 32.907 41.0554 33.3911 40.2023C33.394 40.1972 33.3968 40.1919 33.3997 40.1868C33.4001 40.1861 33.4004 40.1855 33.4008 40.1849C34.0485 39.0423 34.6025 37.8384 35.051 36.5982L37.5174 37.4201C40.1173 38.2871 42.049 40.9254 42.2812 43.8281H31.0553Z" fill="white"/>
<path d="M40.5199 41.4571C40.1283 40.6733 39.5548 39.9769 38.8612 39.4434C38.6047 39.246 38.2368 39.294 38.0395 39.5505C37.8422 39.807 37.8902 40.1749 38.1466 40.3722C38.7006 40.7984 39.1587 41.3546 39.4715 41.9808C39.6164 42.2708 39.9686 42.3875 40.2575 42.2431C40.547 42.0985 40.6645 41.7466 40.5199 41.4571Z" fill="white"/>
</g>
</svg>
