<svg width="60" height="60" viewBox="0 0 60 60" fill="none" xmlns="http://www.w3.org/2000/svg">
<circle cx="30" cy="30" r="30" fill="#FF6500"/>
<path d="M42.8999 28.5565L42.123 25.4489C42.3354 25.4038 42.4948 25.2154 42.4948 24.9896V24.4886C42.4948 23.4007 41.6097 22.5157 40.5219 22.5157H36.9833V21.4823C36.9833 20.9469 36.5479 20.5115 36.0125 20.5115H17.9749C17.4396 20.5115 17.0041 20.9469 17.0041 21.4823V30C17.0041 30.2594 17.2144 30.4698 17.4739 30.4698C17.7333 30.4698 17.9436 30.2595 17.9436 30V21.4823C17.9436 21.465 17.9576 21.451 17.9749 21.451H36.0125C36.0298 21.451 36.0438 21.465 36.0438 21.4823V30.0001C36.0438 30.2595 36.2541 30.4699 36.5135 30.4699C36.7729 30.4699 36.9833 30.2596 36.9833 30.0001V29.4676H42.5244C42.5249 29.4676 42.5252 29.4678 42.5256 29.4678C42.5261 29.4678 42.5265 29.4677 42.5269 29.4677C43.2088 29.4682 43.7878 29.9157 43.9866 30.5324H42.526C42.2666 30.5324 42.0563 30.7427 42.0563 31.0022V32.0042C42.0563 32.8158 42.7165 33.476 43.5281 33.476H44.0604V35.5428H42.8322C42.4287 34.3778 41.3212 33.5386 40.0208 33.5386C38.7203 33.5386 37.6127 34.3778 37.2093 35.5428H36.9831V32.0042C36.9831 31.7448 36.7729 31.5344 36.5134 31.5344C36.254 31.5344 36.0437 31.7447 36.0437 32.0042V35.5427H26.2979C25.8944 34.3777 24.7869 33.5385 23.4864 33.5385C22.1859 33.5385 21.0784 34.3777 20.675 35.5427H17.9749C17.9576 35.5427 17.9436 35.5287 17.9436 35.5114V34.478H19.9791C20.2385 34.478 20.4489 34.2677 20.4489 34.0083C20.4489 33.7488 20.2386 33.5385 19.9791 33.5385H15.4697C15.2104 33.5385 15 33.7488 15 34.0083C15 34.2677 15.2103 34.478 15.4697 34.478H17.0042V35.5114C17.0042 36.0467 17.4397 36.4822 17.975 36.4822H20.5123C20.5122 36.4926 20.5115 36.503 20.5115 36.5135C20.5115 38.1539 21.8461 39.4884 23.4864 39.4884C25.1268 39.4884 26.4613 38.1539 26.4613 36.5135C26.4613 36.5029 26.4606 36.4926 26.4605 36.4822H37.0467C37.0465 36.4926 37.0458 36.503 37.0458 36.5135C37.0458 38.1539 38.3804 39.4884 40.0208 39.4884C41.6611 39.4884 42.9957 38.1539 42.9957 36.5135C42.9957 36.5029 42.995 36.4926 42.9949 36.4822H44.5302C44.7896 36.4822 44.9999 36.2719 44.9999 36.0125V31.002C45 29.765 44.0873 28.7372 42.8999 28.5565ZM36.9833 23.4552H40.5219C41.0917 23.4552 41.5553 23.9188 41.5553 24.4886V24.5199H36.9833V23.4552ZM36.9833 28.5282V25.4593H41.1572L41.9245 28.5282H36.9833ZM23.4864 38.5491C22.3641 38.5491 21.4509 37.636 21.4509 36.5136C21.4509 35.3912 22.3641 34.4781 23.4864 34.4781C24.6088 34.4781 25.5219 35.3912 25.5219 36.5136C25.5219 37.636 24.6088 38.5491 23.4864 38.5491ZM40.0209 38.5491C38.8985 38.5491 37.9854 37.636 37.9854 36.5136C37.9854 35.3912 38.8985 34.4781 40.0209 34.4781C41.1432 34.4781 42.0564 35.3912 42.0564 36.5136C42.0564 37.636 41.1432 38.5491 40.0209 38.5491ZM44.0606 32.5366H43.5282C43.2346 32.5366 42.9958 32.2977 42.9958 32.0042V31.4718H44.0605V32.5366H44.0606Z" fill="white"/>
<path d="M23.4864 35.5428C22.9511 35.5428 22.5156 35.9783 22.5156 36.5136C22.5156 37.0489 22.9511 37.4843 23.4864 37.4843C24.0217 37.4843 24.4572 37.0489 24.4572 36.5136C24.4572 35.9783 24.0217 35.5428 23.4864 35.5428Z" fill="white"/>
<path d="M40.0216 35.543C39.4863 35.543 39.0508 35.9784 39.0508 36.5138C39.0508 37.0491 39.4863 37.4845 40.0216 37.4845C40.5569 37.4845 40.9923 37.0491 40.9923 36.5138C40.9923 35.9784 40.5569 35.543 40.0216 35.543Z" fill="white"/>
<path d="M34.5078 33.5386H27.4932C27.2338 33.5386 27.0234 33.7489 27.0234 34.0083C27.0234 34.2678 27.2337 34.4781 27.4932 34.4781H34.5078C34.7672 34.4781 34.9775 34.2678 34.9775 34.0083C34.9775 33.7489 34.7672 33.5386 34.5078 33.5386Z" fill="white"/>
<path d="M22.4862 31.5347H16.4737C16.2143 31.5347 16.0039 31.745 16.0039 32.0044C16.0039 32.2639 16.2142 32.4742 16.4737 32.4742H22.4862C22.7456 32.4742 22.9559 32.2639 22.9559 32.0044C22.9559 31.745 22.7456 31.5347 22.4862 31.5347Z" fill="white"/>
<path d="M31.336 25.1585C31.1526 24.9751 30.8551 24.9751 30.6717 25.1586L26.4945 29.3358L24.3214 27.1627C24.1379 26.9793 23.8405 26.9793 23.6571 27.1627C23.4737 27.3462 23.4737 27.6436 23.6571 27.827L26.1624 30.3322C26.2541 30.424 26.3743 30.4698 26.4945 30.4698C26.6146 30.4698 26.7349 30.424 26.8266 30.3322L31.336 25.8229C31.5194 25.6394 31.5194 25.342 31.336 25.1585Z" fill="white"/>
</svg>
