<svg width="23" height="29" viewBox="0 0 23 29" fill="none" xmlns="http://www.w3.org/2000/svg">
<path d="M11.3843 16.48C10.0833 16.4816 8.82203 16.0321 7.8152 15.2082C6.80838 14.3843 6.11828 13.2368 5.86242 11.9612C5.84203 11.8269 5.85109 11.6897 5.88898 11.5592C5.92687 11.4287 5.99269 11.308 6.08186 11.2054C6.17104 11.1028 6.28145 11.0209 6.40544 10.9653C6.52942 10.9096 6.66403 10.8816 6.79992 10.8831C7.02326 10.8799 7.24043 10.9565 7.4123 11.0991C7.58418 11.2418 7.69947 11.4411 7.73742 11.6613C7.91398 12.504 8.37518 13.2603 9.04353 13.8031C9.71189 14.346 10.5467 14.6423 11.4077 14.6423C12.2688 14.6423 13.1036 14.346 13.7719 13.8031C14.4403 13.2603 14.9015 12.504 15.078 11.6613C15.116 11.4411 15.2313 11.2418 15.4032 11.0991C15.575 10.9565 15.7922 10.8799 16.0155 10.8831C16.1514 10.8816 16.286 10.9096 16.41 10.9653C16.534 11.0209 16.6444 11.1028 16.7336 11.2054C16.8228 11.308 16.8886 11.4287 16.9265 11.5592C16.9644 11.6897 16.9734 11.8269 16.953 11.9612C16.6957 13.2448 15.9987 14.3983 14.9822 15.2231C13.9657 16.048 12.6933 16.4925 11.3843 16.48Z" fill="#1C0D00"/>
<path d="M11.3843 16.48C10.0833 16.4816 8.82203 16.0321 7.8152 15.2082C6.80838 14.3843 6.11828 13.2368 5.86242 11.9612C5.84203 11.8269 5.85109 11.6897 5.88898 11.5592C5.92687 11.4287 5.99269 11.308 6.08186 11.2054C6.17104 11.1028 6.28145 11.0209 6.40544 10.9653C6.52942 10.9096 6.66403 10.8816 6.79992 10.8831C7.02326 10.8799 7.24043 10.9565 7.4123 11.0991C7.58418 11.2418 7.69947 11.4411 7.73742 11.6613C7.91398 12.504 8.37518 13.2603 9.04353 13.8031C9.71189 14.346 10.5467 14.6423 11.4077 14.6423C12.2688 14.6423 13.1036 14.346 13.7719 13.8031C14.4403 13.2603 14.9015 12.504 15.078 11.6613C15.116 11.4411 15.2313 11.2418 15.4032 11.0991C15.575 10.9565 15.7922 10.8799 16.0155 10.8831C16.1514 10.8816 16.286 10.9096 16.41 10.9653C16.534 11.0209 16.6444 11.1028 16.7336 11.2054C16.8228 11.308 16.8886 11.4287 16.9265 11.5592C16.9644 11.6897 16.9734 11.8269 16.953 11.9612C16.6957 13.2448 15.9987 14.3983 14.9822 15.2231C13.9657 16.048 12.6933 16.4925 11.3843 16.48Z" fill="black" fill-opacity="0.2"/>
<path d="M19.7264 28.8362H3.03892C2.65744 28.8366 2.27985 28.7595 1.92912 28.6094C1.57839 28.4594 1.26185 28.2396 0.998763 27.9633C0.735673 27.6871 0.531531 27.3602 0.398755 27.0026C0.265979 26.6449 0.207344 26.264 0.226418 25.883L0.985793 9.72053C1.01722 8.99594 1.32736 8.31149 1.85143 7.81012C2.37551 7.30876 3.07302 7.02923 3.79829 7.02991H18.967C19.6923 7.02923 20.3898 7.30876 20.9139 7.81012C21.438 8.31149 21.7481 8.99594 21.7795 9.72053L22.5389 25.883C22.558 26.264 22.4994 26.6449 22.3666 27.0026C22.2338 27.3602 22.0297 27.6871 21.7666 27.9633C21.5035 28.2396 21.1869 28.4594 20.8362 28.6094C20.4855 28.7595 20.1079 28.8366 19.7264 28.8362ZM3.79829 8.91428C3.54965 8.91428 3.3112 9.01306 3.13538 9.18887C2.95957 9.36469 2.86079 9.60314 2.86079 9.85178L2.10142 25.9768C2.09506 26.1038 2.11461 26.2308 2.15886 26.35C2.20312 26.4692 2.27117 26.5781 2.35887 26.6702C2.44656 26.7623 2.55208 26.8356 2.66899 26.8856C2.7859 26.9356 2.91176 26.9613 3.03892 26.9612H19.7264C19.8536 26.9613 19.9794 26.9356 20.0964 26.8856C20.2133 26.8356 20.3188 26.7623 20.4065 26.6702C20.4942 26.5781 20.5622 26.4692 20.6065 26.35C20.6507 26.2308 20.6703 26.1038 20.6639 25.9768L19.9045 9.81428C19.9045 9.56564 19.8058 9.32719 19.63 9.15137C19.4541 8.97556 19.2157 8.87678 18.967 8.87678L3.79829 8.91428Z" fill="#1C0D00"/>
<path d="M19.7264 28.8362H3.03892C2.65744 28.8366 2.27985 28.7595 1.92912 28.6094C1.57839 28.4594 1.26185 28.2396 0.998763 27.9633C0.735673 27.6871 0.531531 27.3602 0.398755 27.0026C0.265979 26.6449 0.207344 26.264 0.226418 25.883L0.985793 9.72053C1.01722 8.99594 1.32736 8.31149 1.85143 7.81012C2.37551 7.30876 3.07302 7.02923 3.79829 7.02991H18.967C19.6923 7.02923 20.3898 7.30876 20.9139 7.81012C21.438 8.31149 21.7481 8.99594 21.7795 9.72053L22.5389 25.883C22.558 26.264 22.4994 26.6449 22.3666 27.0026C22.2338 27.3602 22.0297 27.6871 21.7666 27.9633C21.5035 28.2396 21.1869 28.4594 20.8362 28.6094C20.4855 28.7595 20.1079 28.8366 19.7264 28.8362ZM3.79829 8.91428C3.54965 8.91428 3.3112 9.01306 3.13538 9.18887C2.95957 9.36469 2.86079 9.60314 2.86079 9.85178L2.10142 25.9768C2.09506 26.1038 2.11461 26.2308 2.15886 26.35C2.20312 26.4692 2.27117 26.5781 2.35887 26.6702C2.44656 26.7623 2.55208 26.8356 2.66899 26.8856C2.7859 26.9356 2.91176 26.9613 3.03892 26.9612H19.7264C19.8536 26.9613 19.9794 26.9356 20.0964 26.8856C20.2133 26.8356 20.3188 26.7623 20.4065 26.6702C20.4942 26.5781 20.5622 26.4692 20.6065 26.35C20.6507 26.2308 20.6703 26.1038 20.6639 25.9768L19.9045 9.81428C19.9045 9.56564 19.8058 9.32719 19.63 9.15137C19.4541 8.97556 19.2157 8.87678 18.967 8.87678L3.79829 8.91428Z" fill="black" fill-opacity="0.2"/>
<path d="M17.0081 7.97678H15.1331V6.33615C15.1331 5.34159 14.738 4.38776 14.0347 3.6845C13.3314 2.98124 12.3776 2.58615 11.3831 2.58615C10.3885 2.58615 9.43467 2.98124 8.73141 3.6845C8.02814 4.38776 7.63306 5.34159 7.63306 6.33615V7.97678H5.75806V6.33615C5.75806 4.84431 6.35069 3.41357 7.40558 2.35868C8.46047 1.30378 9.89121 0.711151 11.3831 0.711151C12.8749 0.711151 14.3056 1.30378 15.3605 2.35868C16.4154 3.41357 17.0081 4.84431 17.0081 6.33615V7.97678Z" fill="#1C0D00"/>
<path d="M17.0081 7.97678H15.1331V6.33615C15.1331 5.34159 14.738 4.38776 14.0347 3.6845C13.3314 2.98124 12.3776 2.58615 11.3831 2.58615C10.3885 2.58615 9.43467 2.98124 8.73141 3.6845C8.02814 4.38776 7.63306 5.34159 7.63306 6.33615V7.97678H5.75806V6.33615C5.75806 4.84431 6.35069 3.41357 7.40558 2.35868C8.46047 1.30378 9.89121 0.711151 11.3831 0.711151C12.8749 0.711151 14.3056 1.30378 15.3605 2.35868C16.4154 3.41357 17.0081 4.84431 17.0081 6.33615V7.97678Z" fill="black" fill-opacity="0.2"/>
</svg>
