<svg width="24" height="15" viewBox="0 0 24 15" fill="none" xmlns="http://www.w3.org/2000/svg">
<path d="M16 14.5C16 13.758 16.733 12.65 17.475 11.72C18.429 10.52 19.569 9.473 20.876 8.674C21.856 8.075 23.044 7.5 24 7.5M24 7.5C23.044 7.5 21.855 6.925 20.876 6.326C19.569 5.526 18.429 4.479 17.475 3.281C16.733 2.35 16 1.24 16 0.499999M24 7.5L6.11959e-07 7.5" stroke="#1C0D00" stroke-width="2"/>
<path d="M16 14.5C16 13.758 16.733 12.65 17.475 11.72C18.429 10.52 19.569 9.473 20.876 8.674C21.856 8.075 23.044 7.5 24 7.5M24 7.5C23.044 7.5 21.855 6.925 20.876 6.326C19.569 5.526 18.429 4.479 17.475 3.281C16.733 2.35 16 1.24 16 0.499999M24 7.5L6.11959e-07 7.5" stroke="black" stroke-opacity="0.2" stroke-width="2"/>
</svg>
