<svg width="26" height="31" viewBox="0 0 26 31" fill="none" xmlns="http://www.w3.org/2000/svg">
<path d="M17.215 14.6982C19.1346 13.3163 20.3846 11.0799 20.3846 8.56048C20.3846 4.37381 16.9338 0.967682 12.6923 0.967682C8.45074 0.967682 4.99998 4.37381 4.99998 8.56048C4.99998 11.0799 6.24996 13.3163 8.16961 14.6982C3.39773 16.5006 0 21.0674 0 26.4036C0 28.7063 1.89791 30.5796 4.23076 30.5796H21.1538C23.4867 30.5796 25.3846 28.7063 25.3846 26.4036C25.3846 21.0674 21.9868 16.5006 17.215 14.6982ZM7.3077 8.56048C7.3077 5.62983 9.72322 3.24555 12.6923 3.24555C15.6613 3.24555 18.0769 5.62983 18.0769 8.56048C18.0769 11.4911 15.6613 13.8755 12.6923 13.8755C9.72322 13.8755 7.3077 11.4911 7.3077 8.56048ZM21.1538 28.3018H4.23076C3.17039 28.3018 2.30771 27.4502 2.30771 26.4035C2.30771 20.7515 6.96615 16.1532 12.6923 16.1532C18.4185 16.1532 23.077 20.7514 23.077 26.4035C23.0769 27.4502 22.2142 28.3018 21.1538 28.3018Z" fill="#1C0D00"/>
<path d="M17.215 14.6982C19.1346 13.3163 20.3846 11.0799 20.3846 8.56048C20.3846 4.37381 16.9338 0.967682 12.6923 0.967682C8.45074 0.967682 4.99998 4.37381 4.99998 8.56048C4.99998 11.0799 6.24996 13.3163 8.16961 14.6982C3.39773 16.5006 0 21.0674 0 26.4036C0 28.7063 1.89791 30.5796 4.23076 30.5796H21.1538C23.4867 30.5796 25.3846 28.7063 25.3846 26.4036C25.3846 21.0674 21.9868 16.5006 17.215 14.6982ZM7.3077 8.56048C7.3077 5.62983 9.72322 3.24555 12.6923 3.24555C15.6613 3.24555 18.0769 5.62983 18.0769 8.56048C18.0769 11.4911 15.6613 13.8755 12.6923 13.8755C9.72322 13.8755 7.3077 11.4911 7.3077 8.56048ZM21.1538 28.3018H4.23076C3.17039 28.3018 2.30771 27.4502 2.30771 26.4035C2.30771 20.7515 6.96615 16.1532 12.6923 16.1532C18.4185 16.1532 23.077 20.7514 23.077 26.4035C23.0769 27.4502 22.2142 28.3018 21.1538 28.3018Z" fill="black" fill-opacity="0.2"/>
</svg>
