<svg width="30" height="30" viewBox="0 0 30 30" fill="none" xmlns="http://www.w3.org/2000/svg">
<path d="M9.73994 8.70744C8.81211 8.70744 8.05725 9.4623 8.05725 10.3901C8.05725 11.318 8.81211 12.0728 9.73994 12.0728C10.6678 12.0728 11.4226 11.318 11.4226 10.3901C11.4226 9.4623 10.6678 8.70744 9.73994 8.70744ZM9.73994 11.1354C9.32902 11.1354 8.99475 10.8011 8.99475 10.3902C8.99475 9.97933 9.32902 9.645 9.73994 9.645C10.1509 9.645 10.4851 9.97933 10.4851 10.3902C10.4851 10.8011 10.1508 11.1354 9.73994 11.1354ZM10.6463 4.69764L5.53326 11.8147C5.38262 12.0241 5.09076 12.0716 4.88141 11.921C4.67205 11.7703 4.62453 11.4785 4.77518 11.2691L9.88824 4.15201C10.0389 3.94266 10.3307 3.89514 10.5401 4.04578C10.7495 4.19648 10.797 4.48834 10.6463 4.69764ZM7.35998 5.52416C7.35998 4.59633 6.60512 3.84141 5.67729 3.84141C4.74945 3.84141 3.99459 4.59627 3.99459 5.52416C3.99459 6.45199 4.74939 7.20685 5.67729 7.20685C6.60512 7.20685 7.35998 6.45199 7.35998 5.52416ZM4.93209 5.52416C4.93209 5.11324 5.26643 4.77891 5.67729 4.77891C6.08814 4.77891 6.42248 5.11324 6.42248 5.52416C6.42248 5.93508 6.0882 6.26936 5.67729 6.26936C5.26637 6.26936 4.93209 5.93502 4.93209 5.52416ZM29.3945 12.792L28.2573 6.67641C28.1159 5.91697 27.8626 5.05699 27.0547 4.43719C26.2944 3.85389 25.456 3.80004 24.718 3.84598L22.1718 1.01543C21.8251 0.63 21.3678 0.42627 20.8494 0.42627H2.34893C1.36818 0.42627 0.570312 1.22414 0.570312 2.20488V13.7094C0.570312 14.6902 1.36824 15.488 2.34893 15.488H9.08516L5.8458 19.7105C5.24891 20.4886 5.39633 21.6073 6.17434 22.2043L15.3022 29.2069C15.6245 29.4541 16.005 29.5736 16.3828 29.5736C16.9174 29.5736 17.4463 29.3342 17.7961 28.8783L29.057 14.1998C29.3725 13.7884 29.4893 13.3016 29.3945 12.792ZM2.34893 14.5505C1.8851 14.5505 1.50781 14.1732 1.50781 13.7094V2.20488C1.50781 1.74105 1.88516 1.36377 2.34893 1.36377H20.8494C21.1016 1.36377 21.3062 1.45488 21.4748 1.64238L23.5391 3.93721L18.3791 4.34133C17.8623 4.38176 17.4223 4.62059 17.1068 5.03191L9.80439 14.5505H2.34893ZM28.3132 13.6291L17.0523 28.3076C16.77 28.6757 16.241 28.7454 15.8729 28.463L6.7451 21.4605C6.37713 21.1782 6.30746 20.649 6.58971 20.2811L17.8506 5.60256C18.0041 5.40246 18.2009 5.29564 18.4523 5.27596L24.6536 4.79027C25.2918 4.74035 25.9577 4.77715 26.4841 5.18098C26.9327 5.52516 27.1794 6.00803 27.3356 6.84779L28.4728 12.9633C28.5189 13.2112 28.4667 13.429 28.3132 13.6291ZM25.2348 6.80941C24.4971 6.24352 23.4364 6.3832 22.8704 7.12096C22.3044 7.85871 22.4441 8.91943 23.1819 9.48545C23.9105 10.0445 24.9882 9.90146 25.5464 9.17391C26.1123 8.43615 25.9726 7.37543 25.2348 6.80941ZM24.8026 8.60326C24.5543 8.92682 24.0757 8.98957 23.7526 8.7416C23.429 8.49328 23.3661 8.01504 23.6142 7.6916C23.7615 7.49959 23.9842 7.39881 24.2093 7.39881C24.8138 7.39887 25.1745 8.1184 24.8026 8.60326ZM24.4962 12.6944L22.9723 14.6813C22.8156 14.8866 22.5221 14.9259 22.3168 14.7692L18.2698 11.6654C18.0645 11.5087 18.0252 11.2152 18.1819 11.0099C18.3386 10.8046 18.6321 10.7653 18.8374 10.922L22.5141 13.7418L23.7528 12.1267C23.9095 11.9215 24.203 11.8821 24.4083 12.0388C24.6136 12.1956 24.6529 12.4891 24.4962 12.6944ZM15.567 21.5097C15.567 21.5097 13.5075 19.9303 13.5069 19.9298C12.7766 19.3697 11.6574 19.5172 11.096 20.2492L10.334 21.2427C10.1773 21.448 10.2167 21.7415 10.4219 21.8982L14.4689 25.002C14.6742 25.1588 14.9677 25.1194 15.1245 24.9141C15.1245 24.9141 15.8855 23.9218 15.8864 23.9207C16.4429 23.195 16.2887 22.0632 15.567 21.5097ZM15.143 23.353L14.6663 23.9746L11.3615 21.44C11.3615 21.44 11.8394 20.8168 11.8395 20.8168C12.0962 20.482 12.6002 20.4131 12.9393 20.6732C12.9393 20.6732 14.9993 22.253 14.9994 22.2531C15.3342 22.5099 15.4033 23.0137 15.143 23.353ZM19.182 19.6235L17.6582 21.6104C17.5014 21.8157 17.208 21.8551 17.0026 21.6983L12.9556 18.5946C12.7504 18.4378 12.711 18.1443 12.8677 17.939L14.3916 15.9521C14.5483 15.7468 14.8418 15.7075 15.0471 15.8642C15.2524 16.0209 15.2918 16.3144 15.135 16.5197L13.8952 18.1363L15.1765 19.119L15.9706 18.0836C16.1273 17.8784 16.4208 17.839 16.6261 17.9957C16.8314 18.1525 16.8707 18.446 16.714 18.6513L15.9187 19.6883L17.2 20.6709L18.4387 19.0559C18.5954 18.8507 18.8889 18.8113 19.0942 18.968C19.2995 19.1247 19.3388 19.4182 19.182 19.6235ZM21.8604 15.2066L16.8177 13.401L16.8172 13.4022C16.6805 13.3536 16.5232 13.369 16.3947 13.4578C16.1823 13.6044 16.129 13.8954 16.2757 14.1078L19.3271 18.5098C19.4737 18.7222 19.7647 18.7755 19.9771 18.6288C20.1894 18.4822 20.2428 18.1911 20.0961 17.9788L19.3658 16.9252L20.3384 15.6569L21.5454 16.0891C21.7891 16.176 22.0572 16.049 22.1442 15.8053C22.2311 15.5616 22.1041 15.2936 21.8604 15.2066ZM18.8062 16.1179L17.8753 14.775L19.4137 15.3258L18.8062 16.1179Z" fill="white"/>
</svg>
